<svg xmlns="http://www.w3.org/2000/svg" width="15" height="18" viewBox="0 0 15 18"><defs><clipPath id="60n2a"><path fill="#fff" d="M15 14.918c0 2.998-5.11 3.096-7.105 3.02v.023S0 18.717 0 14.971c0-3.658 4.526-2.926 4.526-5.23 0-1.572-1.368-1.946-1.368-5.232C3.158-.462 7.895.025 7.895.025v.03c1.346.107 3.947.788 3.947 4.454 0 3.27-1.368 3.641-1.368 5.204 0 2.293 4.526 1.564 4.526 5.205z"/></clipPath></defs><g><g><path fill="none" stroke="#bfbfbf" stroke-miterlimit="50" stroke-width="3.33" d="M15 14.918c0 2.998-5.11 3.096-7.105 3.02v.023S0 18.717 0 14.971c0-3.658 4.526-2.926 4.526-5.23 0-1.572-1.368-1.946-1.368-5.232C3.158-.462 7.895.025 7.895.025v.03c1.346.107 3.947.788 3.947 4.454 0 3.27-1.368 3.641-1.368 5.204 0 2.293 4.526 1.564 4.526 5.205z" clip-path="url(&quot;#60n2a&quot;)"/></g></g></svg>