<svg xmlns="http://www.w3.org/2000/svg" width="16" height="13" viewBox="0 0 16 13"><defs><clipPath id="awiqa"><path fill="#fff" d="M8.333 13.01c-.123 0-.23-.028-.333-.06-.104.032-.21.06-.333.06C5.274 13.01 0 7.21 0 4.872 0 2.535 1.94-.011 4.334-.011c1.55 0 2.9.802 3.666 1.998A4.342 4.342 0 0 1 11.667-.01C14.06-.01 16 2.535 16 4.872s-5.273 8.138-7.667 8.138z"/></clipPath></defs><g><g><path fill="none" stroke="#bfbfbf" stroke-miterlimit="50" stroke-width="3.33" d="M8.333 13.01c-.123 0-.23-.028-.333-.06-.104.032-.21.06-.333.06C5.274 13.01 0 7.21 0 4.872 0 2.535 1.94-.011 4.334-.011c1.55 0 2.9.802 3.666 1.998A4.342 4.342 0 0 1 11.667-.01C14.06-.01 16 2.535 16 4.872s-5.273 8.138-7.667 8.138z" clip-path="url(&quot;#awiqa&quot;)"/></g></g></svg>