<svg xmlns="http://www.w3.org/2000/svg" width="16" height="15" viewBox="0 0 16 15"><g><g><path fill="#bfbfbf" d="M12.182 1.311l-6.78 13.195a.913.913 0 0 1-1.226.396.898.898 0 0 1-.399-1.213L10.557.494a.916.916 0 0 1 1.225-.396.898.898 0 0 1 .4 1.213zM3.457 7.865C1.551 7.865 0 6.33 0 4.444c0-1.887 1.55-3.422 3.457-3.422 1.906 0 3.457 1.535 3.457 3.422 0 1.886-1.55 3.42-3.457 3.42zm1.634-3.421c0-.892-.733-1.618-1.634-1.618-.9 0-1.634.726-1.634 1.618 0 .891.733 1.617 1.634 1.617.901 0 1.634-.726 1.634-1.617zM16 10.556c0 1.887-1.551 3.421-3.457 3.421-1.907 0-3.458-1.534-3.458-3.42 0-1.887 1.551-3.422 3.458-3.422C14.449 7.135 16 8.67 16 10.556zm-1.823 0c0-.891-.733-1.617-1.634-1.617-.901 0-1.634.726-1.634 1.617 0 .892.733 1.617 1.634 1.617.9 0 1.634-.725 1.634-1.617z"/></g></g></svg>