<svg xmlns="http://www.w3.org/2000/svg" viewBox="0 0 141.91 23.22">
  <defs>
    <style>
      .cls-1 {
        fill: #cf2e2e;
      }

      .cls-2 {
        fill: #fff;
      }
    </style>
  </defs>

  <g>
    <path class="cls-1" d="M5.1,18.15a9.46,9.46,0,0,1-5-9.77A9.57,9.57,0,0,1,9.39,0a9.67,9.67,0,0,1,9.75,7.56Z" />
    <path class="cls-1" d="M19.34,8.86v1.39L7.67,19.05a2.68,2.68,0,0,1-1.42-.32Z" />
    <path class="cls-1" d="M9.29,19.26,19,12C18.41,16.12,13.6,19.79,9.29,19.26Z" />
  </g>

  <g class="logo__name">
    <path class="cls-2"
      d="M140.25,15.47a6.81,6.81,0,0,1-9.13.88,6.39,6.39,0,0,1-2.63-5.08c-.06-3,0-6,0-9,0-.08,0-.16,0-.26h1.57a1,1,0,0,1,.08.67c0,2.7,0,5.41,0,8.12a5,5,0,0,0,10.07.54c0-2.87,0-5.75,0-8.62V2h1.68V17.42a10,10,0,0,1-1.66,0Z" />
    <path class="cls-2"
      d="M79.5,18.47h1.68c1.64,2.69,3.68,3.66,6.11,2.84a5.28,5.28,0,0,0,3.59-5.74c-2.44,2.27-5.18,2.86-8.17,1.35a6.46,6.46,0,0,1-3.5-5,7.73,7.73,0,0,1,1.66,0C81.6,14.46,83.23,16.05,86,16s4.26-1.59,4.94-4.14h1.62c.16.12.11.28.1.41a44.7,44.7,0,0,1-.12,5.43,6.72,6.72,0,0,1-13,.94A.64.64,0,0,1,79.5,18.47Z" />
    <path class="cls-2"
      d="M95.87,14.65V23H94.26V11.91h2a6.4,6.4,0,0,0,11.93,0h1.74A7.61,7.61,0,0,1,105.45,17C101.79,18.51,98.63,17.6,95.87,14.65Z" />
    <path class="cls-2"
      d="M111.13,11.9h1.74a6.4,6.4,0,0,0,11.94,0h2v5.53H125.2V14.69c-2.87,3-6.14,3.89-9.88,2.19A7.69,7.69,0,0,1,111.13,11.9Z" />
    <path class="cls-2"
      d="M56.63,17.44V14.69c-3,3.09-6.39,4-10.24,2a7.27,7.27,0,0,1-3.76-4.8h1.66a6.4,6.4,0,0,0,11.94,0h2v5.54Z" />
    <path class="cls-2" d="M58,7.56H56.27C55.07,4.82,53,3.25,50,3.37a6.2,6.2,0,0,0-5.71,4.17h-1.7A8,8,0,0,1,58,7.56Z" />
    <path class="cls-2" d="M109.94,7.56h-1.7a6.25,6.25,0,0,0-6-4.2c-2.89,0-4.84,1.57-6,4.2H94.54a8,8,0,0,1,15.4,0Z" />
    <path class="cls-2"
      d="M126.52,7.55h-1.68a6.23,6.23,0,0,0-6-4.19c-2.9,0-4.86,1.55-6,4.19h-1.67a7.95,7.95,0,0,1,15.35,0Z" />
    <path class="cls-2"
      d="M39.32,13.48h1.83c-.53,1.71-3.52,4.38-7.29,4.23-3.33-.13-6.7-2.73-7.31-5.8h1.66A6.43,6.43,0,0,0,39.32,13.48Z" />
    <path class="cls-2"
      d="M41.27,5.94H39.35A6.39,6.39,0,0,0,28.21,7.55H26.54c.31-2.61,3.28-5.27,6.44-5.81A8,8,0,0,1,41.27,5.94Z" />
    <path class="cls-2" d="M75.57,2h1.82V7.53H75.75V4.85l-.12,0L73.71,7.54H71.65Z" />
    <path class="cls-2" d="M61.86,2l3.93,5.59H63.73L61.8,4.82l-.12,0V7.54H60.05V2Z" />
    <path class="cls-2" d="M91,2h1.62V7.53a9.62,9.62,0,0,1-1.62,0Z" />
    <path class="cls-2" d="M77.4,17.45H75.77V11.92a8,8,0,0,1,1.63,0Z" />
    <path class="cls-2" d="M60,17.48V11.92a8,8,0,0,1,1.63,0v5.52A10.8,10.8,0,0,1,60,17.48Z" />
    <path class="cls-2" d="M79.16,7.53V2h1.65V7.53Z" />
    <path class="cls-2" d="M137.81,2v1.6h-5.22V2Z" />
    <path class="cls-2" d="M68.71,14.65,66.8,11.92h3.83Z" />
  </g>
</svg>