<svg width="22" height="22" viewBox="0 0 22 22" fill="none" xmlns="http://www.w3.org/2000/svg">
<path fill-rule="evenodd" clip-rule="evenodd" d="M11 1.94975C6.02944 1.94975 2 5.87794 2 10.7236C2 15.5693 6.02944 19.4975 11 19.4975C15.9706 19.4975 20 15.5693 20 10.7236C20 5.87794 15.9706 1.94975 11 1.94975ZM0 10.7236C0 4.80113 4.92487 0 11 0C17.0751 0 22 4.80113 22 10.7236C22 16.6461 17.0751 21.4472 11 21.4472C4.92487 21.4472 0 16.6461 0 10.7236Z" fill="#333333"/>
<path d="M11.7071 6.13478C11.3166 5.75407 10.6834 5.75407 10.2929 6.13478C9.90237 6.51549 9.90237 7.13275 10.2929 7.51346L12.5858 9.74874H7C6.44772 9.74874 6 10.1852 6 10.7236C6 11.262 6.44772 11.6985 7 11.6985H12.5858L10.2929 13.9338C9.90237 14.3145 9.90237 14.9317 10.2929 15.3125C10.6834 15.6932 11.3166 15.6932 11.7071 15.3125L15.7071 11.413C16.0976 11.0322 16.0976 10.415 15.7071 10.0343L11.7071 6.13478Z" fill="#333333"/>
</svg>
