<svg width="22" height="22" viewBox="0 0 22 22" fill="none" xmlns="http://www.w3.org/2000/svg">
<path fill-rule="evenodd" clip-rule="evenodd" d="M11 1.94975C6.02944 1.94975 2 5.87794 2 10.7236C2 15.5693 6.02944 19.4975 11 19.4975C15.9706 19.4975 20 15.5693 20 10.7236C20 5.87794 15.9706 1.94975 11 1.94975ZM0 10.7236C0 4.80113 4.92487 0 11 0C17.0751 0 22 4.80113 22 10.7236C22 16.6461 17.0751 21.4472 11 21.4472C4.92487 21.4472 0 16.6461 0 10.7236Z" fill="#333333"/>
<path d="M11.7071 7.51346C12.0976 7.13275 12.0976 6.51549 11.7071 6.13478C11.3166 5.75407 10.6834 5.75407 10.2929 6.13478L6.29289 10.0343C5.90237 10.415 5.90237 11.0322 6.29289 11.413L10.2929 15.3125C10.6834 15.6932 11.3166 15.6932 11.7071 15.3125C12.0976 14.9317 12.0976 14.3145 11.7071 13.9338L9.41421 11.6985H15C15.5523 11.6985 16 11.262 16 10.7236C16 10.1852 15.5523 9.74874 15 9.74874H9.41421L11.7071 7.51346Z" fill="#333333"/>
</svg>
