<svg width="58" height="50" viewBox="0 0 58 50" fill="none" xmlns="http://www.w3.org/2000/svg">
<path d="M7.55816 50C6.29078 50 5.0234 49.7512 3.75601 49.005C0.20734 47.0149 -1.06004 42.2886 0.96777 38.806L22.5133 3.48259C23.2737 2.48756 24.0341 1.49254 25.048 0.995025C26.8224 0 28.8502 -0.248756 30.878 0.248756C32.9058 0.746269 34.4267 1.99005 35.6941 3.73134L56.9861 38.806C57.7465 40.0498 58 41.2935 58 42.5373C58 44.5274 57.2396 46.5174 55.7187 47.7612C54.4513 49.2537 52.677 50 50.6492 50H7.55816ZM26.8224 6.21891L5.53035 41.2935C4.76992 42.5373 5.27687 44.0299 6.54425 44.7761C6.79773 45.0249 7.30469 45.0249 7.55816 45.0249H50.3957C51.1561 45.0249 51.6631 44.7761 52.17 44.2786C52.677 43.7811 52.9305 43.2836 52.9305 42.5373C52.9305 42.0398 52.9305 41.791 52.677 41.2935L31.385 6.21891C30.6245 4.97512 29.1037 4.72637 27.8363 5.22388C27.3293 5.47264 27.0759 5.72139 26.8224 6.21891Z" fill="#2176B7"/>
<path d="M29.1037 30.0995C27.5828 30.0995 26.5689 29.1045 26.5689 27.6119V17.6617C26.5689 16.1692 27.5828 15.1741 29.1037 15.1741C30.6245 15.1741 31.6384 16.1692 31.6384 17.6617V27.6119C31.6384 29.1045 30.6245 30.0995 29.1037 30.0995Z" fill="#2176B7"/>
<path d="M29.1037 40.0498C28.3432 40.0498 27.8363 39.801 27.3293 39.3035C26.8224 38.806 26.5689 38.3085 26.5689 37.5622C26.5689 37.3134 26.5689 36.8159 26.8224 36.5672C27.0759 36.3184 27.0759 36.0696 27.3293 35.8209C27.5828 35.5721 27.8363 35.3234 28.0898 35.3234C28.5967 35.0746 29.1037 35.0746 29.6106 35.0746C29.8641 35.0746 29.8641 35.0746 30.1176 35.3234C30.3711 35.3234 30.3711 35.3234 30.6245 35.5721C30.6245 35.5721 30.878 35.8209 31.1315 35.8209C31.385 36.0696 31.6384 36.3184 31.6384 36.5672C31.6384 36.8159 31.8919 37.3134 31.8919 37.5622C31.8919 38.3085 31.6384 38.806 31.1315 39.3035C30.3711 39.801 29.8641 40.0498 29.1037 40.0498Z" fill="#2176B7"/>
</svg>
