<svg width="12" height="13" viewBox="0 0 12 13" fill="none" xmlns="http://www.w3.org/2000/svg">
<path fill-rule="evenodd" clip-rule="evenodd" d="M11.7046 0.871951C12.0984 1.26209 12.0984 1.89464 11.7046 2.28478L1.72152 12.1745C1.3277 12.5647 0.689188 12.5647 0.295366 12.1745C-0.0984552 11.7844 -0.0984556 11.1519 0.295366 10.7617L10.2784 0.871951C10.6723 0.48181 11.3108 0.481811 11.7046 0.871951Z" fill="#333333"/>
<path fill-rule="evenodd" clip-rule="evenodd" d="M0.295411 0.871951C0.689232 0.481811 1.32774 0.48181 1.72156 0.871951L11.7046 10.7617C12.0985 11.1519 12.0985 11.7844 11.7046 12.1745C11.3108 12.5647 10.6723 12.5647 10.2785 12.1745L0.29541 2.28478C-0.098411 1.89464 -0.0984109 1.26209 0.295411 0.871951Z" fill="#333333"/>
</svg>
