<svg width="15" height="15" viewBox="0 0 15 15" fill="none" xmlns="http://www.w3.org/2000/svg">
<g clip-path="url(#clip0)">
<path fill-rule="evenodd" clip-rule="evenodd" d="M7.5 1.24881C6.17392 1.24881 4.90215 1.7751 3.96447 2.71189C3.02678 3.64868 2.5 4.91924 2.5 6.24406C2.5 8.17851 3.75984 10.0556 5.14122 11.5123C5.81913 12.2272 6.49917 12.8125 7.01042 13.2192C7.2007 13.3706 7.36689 13.4967 7.5 13.5949C7.63311 13.4967 7.7993 13.3706 7.98958 13.2192C8.50083 12.8125 9.18087 12.2272 9.85878 11.5123C11.2402 10.0556 12.5 8.17851 12.5 6.24406C12.5 4.91924 11.9732 3.64868 11.0355 2.71189C10.0979 1.7751 8.82608 1.24881 7.5 1.24881ZM7.5 14.3613C7.15331 14.8809 7.15315 14.8808 7.15297 14.8807L7.15119 14.8795L7.14702 14.8767L7.1327 14.867C7.12053 14.8587 7.10317 14.8469 7.08097 14.8315C7.03658 14.8008 6.97279 14.7561 6.89237 14.698C6.73159 14.582 6.50398 14.4127 6.23176 14.1961C5.68833 13.7638 4.96212 13.1393 4.23378 12.3712C2.80266 10.862 1.25 8.68046 1.25 6.24406C1.25 4.58804 1.90848 2.99983 3.08058 1.82884C4.25269 0.657855 5.8424 0 7.5 0C9.1576 0 10.7473 0.657855 11.9194 1.82884C13.0915 2.99983 13.75 4.58804 13.75 6.24406C13.75 8.68046 12.1973 10.862 10.7662 12.3712C10.0379 13.1393 9.31167 13.7638 8.76824 14.1961C8.49603 14.4127 8.26841 14.582 8.10763 14.698C8.02721 14.7561 7.96342 14.8008 7.91903 14.8315C7.89683 14.8469 7.87947 14.8587 7.8673 14.867L7.85298 14.8767L7.84881 14.8795L7.84749 14.8803C7.84731 14.8805 7.84669 14.8809 7.5 14.3613ZM7.5 14.3613L7.84669 14.8809C7.63675 15.0207 7.36291 15.0205 7.15297 14.8807L7.5 14.3613Z" fill="#E34343"/>
<path fill-rule="evenodd" clip-rule="evenodd" d="M7.5 4.99525C6.80964 4.99525 6.25 5.55436 6.25 6.24406C6.25 6.93376 6.80964 7.49288 7.5 7.49288C8.19036 7.49288 8.75 6.93376 8.75 6.24406C8.75 5.55436 8.19036 4.99525 7.5 4.99525ZM5 6.24406C5 4.86466 6.11929 3.74644 7.5 3.74644C8.88071 3.74644 10 4.86466 10 6.24406C10 7.62346 8.88071 8.74169 7.5 8.74169C6.11929 8.74169 5 7.62346 5 6.24406Z" fill="#E34343"/>
</g>
<defs>
<clipPath id="clip0">
<rect width="15" height="14.9858" fill="white"/>
</clipPath>
</defs>
</svg>
