<svg width="22" height="25" viewBox="0 0 22 25" fill="none" xmlns="http://www.w3.org/2000/svg">
<path d="M1.56248 0H14.8382L21.8749 7.0094V23.4375C21.8749 24.3008 21.175 25 20.3125 25H1.56248C0.699962 25 0 24.3008 0 23.4375V1.56248C0 0.699234 0.700042 0 1.56248 0Z" fill="white"/>
<path d="M21.8523 7.03125H16.4062C15.5437 7.03125 14.8438 6.33128 14.8438 5.46876V0.015625L21.8523 7.03125Z" fill="#BDB6B5"/>
<path d="M16.0141 11.846C16.2758 11.846 16.4039 11.6179 16.4039 11.3968C16.4039 11.1679 16.2703 10.9468 16.0141 10.9468H14.5234C14.232 10.9468 14.0695 11.1882 14.0695 11.4546V15.1178C14.0695 15.4444 14.2555 15.6257 14.507 15.6257C14.7571 15.6257 14.9438 15.4444 14.9438 15.1178V14.1124H15.8453C16.125 14.1124 16.2649 13.8835 16.2649 13.6562C16.2649 13.4335 16.125 13.2124 15.8453 13.2124H14.9438V11.846H16.0141ZM10.9758 10.9468H9.88513C9.58903 10.9468 9.37885 11.1499 9.37885 11.4514V15.121C9.37885 15.4952 9.68118 15.6124 9.89758 15.6124H11.0421C12.3968 15.6124 13.2913 14.721 13.2913 13.3452C13.2906 11.8905 12.4484 10.9468 10.9758 10.9468ZM11.0282 14.7078H10.3633V11.8515H10.9625C11.8696 11.8515 12.2641 12.4601 12.2641 13.2999C12.2641 14.0859 11.8765 14.7078 11.0282 14.7078ZM7.03282 10.9468H5.95236C5.64688 10.9468 5.47656 11.1483 5.47656 11.4546V15.1178C5.47656 15.4444 5.67186 15.6257 5.93434 15.6257C6.19681 15.6257 6.39211 15.4444 6.39211 15.1178V14.0483H7.06944C7.90537 14.0483 8.59523 13.4561 8.59523 12.5038C8.59531 11.5718 7.9297 10.9468 7.03282 10.9468ZM7.01488 13.189H6.39219V11.807H7.01488C7.39925 11.807 7.64378 12.1069 7.64378 12.4983C7.64297 12.889 7.39925 13.189 7.01488 13.189Z" fill="#333333"/>
</svg>
