<svg width="60" height="59" viewBox="0 0 60 59" fill="none" xmlns="http://www.w3.org/2000/svg">
<path d="M30 0C13.4317 0 0 13.094 0 29.2462C0 45.3985 13.4317 58.4925 30 58.4925C46.5683 58.4925 60 45.3985 60 29.2462C60 13.094 46.5683 0 30 0ZM40.3688 30.7965L25.3687 39.936C25.0652 40.1207 24.7201 40.2136 24.375 40.2136C24.0623 40.2136 23.7492 40.1377 23.4659 39.9842C22.8698 39.662 22.5 39.0506 22.5 38.3857V20.1068C22.5 19.4419 22.8698 18.8305 23.4659 18.5083C24.0619 18.1843 24.7907 18.204 25.3687 18.5565L40.3688 27.696C40.9167 28.0307 41.25 28.6162 41.25 29.2462C41.25 29.8763 40.9167 30.4619 40.3688 30.7965Z" fill="white" fill-opacity="0.6"/>
</svg>
