<svg width="18" height="19" viewBox="0 0 18 19" fill="none" xmlns="http://www.w3.org/2000/svg">
<path d="M8.73573 17.3147L7.45573 17.8867C6.90073 18.1367 6.24573 17.9607 5.88973 17.4667L5.06973 16.3317C4.96173 16.1847 4.79673 16.0887 4.61473 16.0697L3.22073 15.9267C2.61573 15.8647 2.13673 15.3867 2.07473 14.7797L1.93073 13.3857C1.91273 13.2037 1.81673 13.0377 1.66873 12.9307L0.532734 12.1087C0.0397343 11.7517 -0.137266 11.0987 0.112734 10.5417L0.685734 9.26373C0.760734 9.09673 0.760734 8.90573 0.685734 8.73873L0.112734 7.45873C-0.137266 6.90373 0.0397343 6.24873 0.532734 5.89273L1.66873 5.07273C1.81673 4.96473 1.91273 4.79973 1.93073 4.61773L2.07473 3.22373C2.13673 2.61873 2.61473 2.13973 3.22173 2.07773L4.61673 1.93373C4.79873 1.91573 4.96373 1.81973 5.07173 1.67173L5.88873 0.532734C6.24873 0.0407344 6.90173 -0.137266 7.45873 0.112734L8.73873 0.685734C8.90473 0.760734 9.09573 0.760734 9.26273 0.685734L10.5427 0.112734C11.0977 -0.137266 11.7527 0.0397344 12.1087 0.532734L12.9287 1.66873C13.0367 1.81673 13.2027 1.91273 13.3847 1.93073L14.7787 2.07473C15.3847 2.13673 15.8637 2.61473 15.9257 3.22173L16.0687 4.61673C16.0887 4.79873 16.1837 4.96373 16.3317 5.07173L17.4677 5.89173C17.9617 6.24973 18.1377 6.90373 17.8877 7.45973L17.3157 8.73973C17.2407 8.90574 17.2407 9.09673 17.3157 9.26373L17.8877 10.5437C18.1377 11.0987 17.9617 11.7537 17.4677 12.1097L16.3327 12.9297C16.1857 13.0377 16.0897 13.2037 16.0707 13.3857L15.9277 14.7797C15.8657 15.3857 15.3877 15.8647 14.7807 15.9267L13.3867 16.0697C13.2047 16.0897 13.0387 16.1847 12.9317 16.3327L12.1097 17.4687C11.7527 17.9627 11.0997 18.1387 10.5427 17.8887L9.26473 17.3167C9.09773 17.2417 8.90673 17.2417 8.73973 17.3167L8.73573 17.3147Z" fill="#29AD2E"/>
<path fill-rule="evenodd" clip-rule="evenodd" d="M14.3946 6.73873L8.09856 12.8987C8.02856 12.9667 7.93856 13.0007 7.84856 13.0007C7.75656 13.0007 7.66656 12.9667 7.59856 12.8987L4.10256 9.47873C3.96256 9.34373 3.96256 9.12473 4.10256 8.98873L5.27256 7.84373C5.41256 7.70773 5.63556 7.70773 5.77456 7.84373L7.84756 9.87373L12.7226 5.10373C12.8606 4.96673 13.0856 4.96673 13.2226 5.10373L14.3926 6.24773C14.4606 6.31273 14.4976 6.40073 14.4976 6.49273C14.4976 6.58473 14.4606 6.67273 14.3936 6.73873H14.3946Z" fill="white"/>
</svg>
