<svg width="47" height="20" viewBox="0 0 47 20" fill="none" xmlns="http://www.w3.org/2000/svg">
<path fill-rule="evenodd" clip-rule="evenodd" d="M23.8219 0H11.7814C10.6168 0 9.48866 0.406557 8.59177 1.14951L1.33484 7.16093C0.48934 7.86131 0 8.90209 0 10C0 11.0979 0.48934 12.1387 1.33484 12.8391L8.59177 18.8505C9.48866 19.5934 10.6168 20 11.7814 20H42C44.7614 20 47 17.7614 47 15V5C47 2.23858 44.7614 0 42 0H23.8219ZM6 12C7.10457 12 8 11.1046 8 10C8 8.89543 7.10457 8 6 8C4.89543 8 4 8.89543 4 10C4 11.1046 4.89543 12 6 12Z" fill="#EFDE43"/>
</svg>
