<svg width="10" height="10" viewBox="0 0 10 10" fill="none" xmlns="http://www.w3.org/2000/svg">
<g clip-path="url(#clip0)">
<path fill-rule="evenodd" clip-rule="evenodd" d="M2.91675 8.74169C2.91675 8.28189 3.28984 7.90915 3.75008 7.90915C4.21032 7.90915 4.58342 8.28189 4.58342 8.74169C4.58342 9.20149 4.21032 9.57423 3.75008 9.57423C3.28984 9.57423 2.91675 9.20149 2.91675 8.74169Z" fill="white"/>
<path fill-rule="evenodd" clip-rule="evenodd" d="M7.5 8.74169C7.5 8.28189 7.8731 7.90915 8.33333 7.90915C8.79357 7.90915 9.16667 8.28189 9.16667 8.74169C9.16667 9.20149 8.79357 9.57423 8.33333 9.57423C7.8731 9.57423 7.5 9.20149 7.5 8.74169Z" fill="white"/>
<path fill-rule="evenodd" clip-rule="evenodd" d="M0 0.416271C0 0.186371 0.186548 0 0.416667 0H2.08333C2.28193 0 2.45292 0.140027 2.4919 0.334575L2.84185 2.08135H9.58333C9.70751 2.08135 9.82522 2.13669 9.90437 2.23228C9.98353 2.32786 10.0159 2.45374 9.99262 2.5756L9.32536 6.07124C9.26821 6.35871 9.11166 6.61694 8.88313 6.80073C8.65575 6.9836 8.37151 7.08117 8.07973 7.07661H4.03694C3.74516 7.08117 3.46092 6.9836 3.23353 6.80073C3.0051 6.61702 2.8486 6.35892 2.79139 6.07159C2.79136 6.07147 2.79141 6.07171 2.79139 6.07159L2.09533 2.5972C2.09251 2.58571 2.09016 2.57403 2.08831 2.56218L1.7418 0.832542H0.416667C0.186548 0.832542 0 0.646171 0 0.416271ZM3.00864 2.9139L3.60868 5.90904C3.62773 6.00487 3.67991 6.09094 3.75609 6.15221C3.83226 6.21347 3.92758 6.24601 4.02535 6.24414L4.03333 6.24406H8.08333L8.09132 6.24414C8.18909 6.24601 8.2844 6.21347 8.36058 6.15221C8.4364 6.09123 8.48845 6.00567 8.50772 5.91038L9.0797 2.9139H3.00864Z" fill="white"/>
</g>
<defs>
<clipPath id="clip0">
<rect width="10" height="9.9905" fill="white"/>
</clipPath>
</defs>
</svg>
