<svg width="123" height="19" viewBox="0 0 123 19" fill="none" xmlns="http://www.w3.org/2000/svg">
<path fill-rule="evenodd" clip-rule="evenodd" d="M9.49998 0.791656C9.80131 0.791656 10.0765 0.962714 10.2099 1.23291L12.4721 5.81594L17.5311 6.5554C17.8293 6.59897 18.0768 6.80798 18.1697 7.09456C18.2626 7.38115 18.1848 7.69565 17.969 7.90586L14.309 11.4707L15.1728 16.507C15.2237 16.804 15.1016 17.1042 14.8578 17.2813C14.614 17.4584 14.2907 17.4818 14.024 17.3415L9.49998 14.9624L4.97597 17.3415C4.70924 17.4818 4.38601 17.4584 4.14219 17.2813C3.89838 17.1042 3.77627 16.804 3.82721 16.507L4.69099 11.4707L1.03094 7.90586C0.815121 7.69565 0.737322 7.38115 0.830246 7.09456C0.92317 6.80798 1.17071 6.59897 1.46882 6.5554L6.52786 5.81594L8.79009 1.23291C8.92346 0.962714 9.19866 0.791656 9.49998 0.791656Z" fill="#E0E0E0"/>
<path fill-rule="evenodd" clip-rule="evenodd" d="M35.5 0.791656C35.8013 0.791656 36.0765 0.962714 36.2099 1.23291L38.4721 5.81594L43.5311 6.5554C43.8293 6.59897 44.0768 6.80798 44.1697 7.09456C44.2626 7.38115 44.1848 7.69565 43.969 7.90586L40.309 11.4707L41.1728 16.507C41.2237 16.804 41.1016 17.1042 40.8578 17.2813C40.614 17.4584 40.2907 17.4818 40.024 17.3415L35.5 14.9624L30.976 17.3415C30.7092 17.4818 30.386 17.4584 30.1422 17.2813C29.8984 17.1042 29.7763 16.804 29.8272 16.507L30.691 11.4707L27.0309 7.90586C26.8151 7.69565 26.7373 7.38115 26.8302 7.09456C26.9232 6.80798 27.1707 6.59897 27.4688 6.5554L32.5279 5.81594L34.7901 1.23291C34.9235 0.962714 35.1987 0.791656 35.5 0.791656Z" fill="#E0E0E0"/>
<path fill-rule="evenodd" clip-rule="evenodd" d="M61.5 0.791656C61.8013 0.791656 62.0765 0.962714 62.2099 1.23291L64.4721 5.81594L69.5311 6.5554C69.8293 6.59897 70.0768 6.80798 70.1697 7.09456C70.2626 7.38115 70.1848 7.69565 69.969 7.90586L66.309 11.4707L67.1728 16.507C67.2237 16.804 67.1016 17.1042 66.8578 17.2813C66.614 17.4584 66.2907 17.4818 66.024 17.3415L61.5 14.9624L56.976 17.3415C56.7092 17.4818 56.386 17.4584 56.1422 17.2813C55.8984 17.1042 55.7763 16.804 55.8272 16.507L56.691 11.4707L53.0309 7.90586C52.8151 7.69565 52.7373 7.38115 52.8302 7.09456C52.9232 6.80798 53.1707 6.59897 53.4688 6.5554L58.5279 5.81594L60.7901 1.23291C60.9235 0.962714 61.1987 0.791656 61.5 0.791656Z" fill="#E0E0E0"/>
<path fill-rule="evenodd" clip-rule="evenodd" d="M87.5001 0.791656C87.8014 0.791656 88.0766 0.962714 88.21 1.23291L90.4722 5.81594L95.5313 6.5554C95.8294 6.59897 96.0769 6.80798 96.1698 7.09456C96.2628 7.38115 96.185 7.69565 95.9691 7.90586L92.3091 11.4707L93.1729 16.507C93.2238 16.804 93.1017 17.1042 92.8579 17.2813C92.6141 17.4584 92.2908 17.4818 92.0241 17.3415L87.5001 14.9624L82.9761 17.3415C82.7094 17.4818 82.3861 17.4584 82.1423 17.2813C81.8985 17.1042 81.7764 16.804 81.8273 16.507L82.6911 11.4707L79.0311 7.90586C78.8152 7.69565 78.7374 7.38115 78.8304 7.09456C78.9233 6.80798 79.1708 6.59897 79.4689 6.5554L84.528 5.81594L86.7902 1.23291C86.9236 0.962714 87.1988 0.791656 87.5001 0.791656Z" fill="#E0E0E0"/>
<path fill-rule="evenodd" clip-rule="evenodd" d="M113.5 0.791656C113.801 0.791656 114.077 0.962714 114.21 1.23291L116.472 5.81594L121.531 6.5554C121.829 6.59897 122.077 6.80798 122.17 7.09456C122.263 7.38115 122.185 7.69565 121.969 7.90586L118.309 11.4707L119.173 16.507C119.224 16.804 119.102 17.1042 118.858 17.2813C118.614 17.4584 118.291 17.4818 118.024 17.3415L113.5 14.9624L108.976 17.3415C108.709 17.4818 108.386 17.4584 108.142 17.2813C107.898 17.1042 107.776 16.804 107.827 16.507L108.691 11.4707L105.031 7.90586C104.815 7.69565 104.737 7.38115 104.83 7.09456C104.923 6.80798 105.171 6.59897 105.469 6.5554L110.528 5.81594L112.79 1.23291C112.924 0.962714 113.199 0.791656 113.5 0.791656Z" fill="#E0E0E0"/>
</svg>
