<svg width="19" height="18" viewBox="0 0 19 18" fill="none" xmlns="http://www.w3.org/2000/svg">
<path fill-rule="evenodd" clip-rule="evenodd" d="M9.49937 0.791504C9.8007 0.791504 10.0759 0.962561 10.2093 1.23276L12.4715 5.81579L17.5305 6.55524C17.8286 6.59882 18.0762 6.80782 18.1691 7.09441C18.262 7.381 18.1842 7.69549 17.9684 7.9057L14.3084 11.4706L15.1721 16.5068C15.2231 16.8039 15.101 17.1041 14.8572 17.2812C14.6133 17.4583 14.2901 17.4816 14.0234 17.3414L9.49937 14.9622L4.97535 17.3414C4.70863 17.4816 4.3854 17.4583 4.14158 17.2812C3.89777 17.1041 3.77566 16.8039 3.8266 16.5068L4.69038 11.4706L1.03033 7.9057C0.814511 7.69549 0.736712 7.381 0.829636 7.09441C0.92256 6.80782 1.1701 6.59882 1.46821 6.55524L6.52725 5.81579L8.78948 1.23276C8.92285 0.962561 9.19805 0.791504 9.49937 0.791504Z" fill="#ECECEC"/>
</svg>
