<?xml version="1.0" standalone="no"?>
<!DOCTYPE svg PUBLIC "-//W3C//DTD SVG 20010904//EN"
 "http://www.w3.org/TR/2001/REC-SVG-20010904/DTD/svg10.dtd">
<svg version="1.0" xmlns="http://www.w3.org/2000/svg"
 width="700.000000pt" height="700.000000pt" viewBox="0 0 700.000000 700.000000"
 preserveAspectRatio="xMidYMid meet">
<metadata>
Created by potrace 1.11, written by Peter Selinger 2001-2013
</metadata>
<g transform="translate(0.000000,700.000000) scale(0.100000,-0.100000)"
fill="#000000" stroke="none">
<path d="M3129 6995 c-2 -1 -39 -6 -81 -10 -43 -3 -88 -8 -100 -10 -13 -2 -45
-6 -71 -10 -27 -4 -57 -8 -67 -10 -9 -2 -34 -6 -53 -9 -20 -3 -78 -15 -129
-27 -51 -11 -102 -22 -112 -25 -11 -2 -65 -17 -120 -35 -397 -122 -704 -276
-1044 -526 -39 -29 -82 -62 -95 -72 -356 -300 -585 -569 -811 -954 -27 -47
-120 -233 -151 -302 -15 -33 -31 -69 -36 -80 -17 -38 -71 -190 -94 -265 -45
-148 -55 -187 -79 -295 -25 -114 -30 -140 -52 -310 -3 -27 -8 -58 -10 -68 -26
-141 -25 -632 1 -817 5 -32 10 -62 21 -130 115 -677 431 -1295 909 -1775 149
-150 185 -183 310 -281 185 -145 503 -342 528 -328 6 4 156 116 332 249 176
133 421 317 545 410 124 93 230 173 235 177 74 58 167 129 195 148 19 13 37
27 40 30 3 3 160 122 350 265 358 269 468 352 510 384 14 11 169 127 345 260
176 132 325 244 330 248 6 5 93 71 195 148 102 77 262 197 355 268 94 70 181
137 195 147 14 10 102 76 195 147 94 71 373 281 620 467 248 186 453 341 457
345 9 8 -49 233 -95 366 -146 424 -361 794 -662 1140 -92 106 -207 218 -331
324 -127 109 -135 115 -197 159 -29 20 -54 39 -57 42 -5 6 -137 93 -218 144
-194 122 -536 269 -802 346 -41 11 -88 25 -105 30 -31 9 -155 35 -215 45 -19
3 -57 10 -85 15 -27 5 -77 12 -110 16 -33 3 -69 9 -80 11 -23 6 -601 14 -606
8z"/>
<path d="M6738 3877 c-7 -6 -195 -149 -418 -316 -223 -168 -477 -359 -565
-426 -88 -67 -335 -254 -550 -415 -214 -162 -498 -375 -630 -475 -132 -100
-415 -313 -630 -475 -214 -162 -644 -486 -955 -720 -311 -235 -605 -457 -655
-494 -49 -37 -103 -77 -118 -89 l-28 -21 53 -27 c79 -40 230 -78 339 -85 l97
-6 408 308 c823 620 945 712 1264 953 179 134 339 255 355 268 17 13 35 27 40
31 60 44 881 663 945 712 47 36 95 72 107 80 28 19 696 523 703 530 3 3 65 50
138 104 l132 99 0 239 c0 140 -4 238 -9 238 -5 0 -16 -6 -23 -13z"/>
<path d="M6265 2513 c-650 -487 -1158 -867 -1181 -883 -23 -15 -127 -93 -192
-143 -20 -16 -48 -37 -62 -48 -14 -11 -59 -44 -100 -75 -89 -66 -72 -52 -340
-254 -118 -89 -226 -169 -240 -180 -14 -10 -214 -160 -445 -333 -232 -172
-430 -319 -440 -325 -20 -11 -20 -11 0 -12 11 -1 31 -4 45 -7 38 -9 384 -9
480 -1 79 7 106 11 170 23 14 3 43 8 65 11 22 3 60 10 85 16 25 5 52 11 60 13
129 27 409 121 565 190 844 375 1521 1072 1807 1860 29 81 87 295 94 350 2 17
6 42 9 58 2 15 3 27 2 26 -1 0 -173 -129 -382 -286z"/>
</g>
</svg>
