<svg id="email" xmlns:svg="http://www.w3.org/2000/svg" xmlns="http://www.w3.org/2000/svg" viewBox="0 0 52.080002 35.729866">
  <g transform="matrix(1.3333333,0,0,-1.3333333,0,35.729867)">
    <g clip-path="url(#clipPath18)">
      <g transform="translate(36.6221,25.4502)">
        <path d="m 0,0 -14.689,-13.127 c -1.371,-1.223 -3.437,-1.222 -4.806,0 L -34.184,0 Z M -11.368,-11.965 1.091,-0.831 v -22.268 z m -23.907,-11.134 v 22.268 l 12.459,-11.134 z m 21.483,8.968 1.414,1.263 L 0,-23.93 h -34.185 l 12.379,11.062 1.413,-1.263 c 0.941,-0.841 2.122,-1.261 3.301,-1.261 1.18,0 2.36,0.42 3.3,1.261 M 2.435,0.689 C 2.434,0.765 2.422,0.84 2.394,0.914 2.393,0.918 2.389,0.921 2.387,0.926 2.381,0.942 2.369,0.955 2.362,0.97 2.334,1.027 2.3,1.078 2.259,1.124 2.241,1.143 2.223,1.158 2.204,1.175 2.162,1.212 2.116,1.242 2.066,1.268 2.045,1.279 2.024,1.291 2.001,1.3 1.926,1.328 1.848,1.347 1.765,1.347 h -37.713 -10e-4 -0.001 c -0.082,0 -0.16,-0.019 -0.234,-0.047 -0.024,-0.009 -0.045,-0.022 -0.068,-0.033 -0.049,-0.025 -0.093,-0.055 -0.134,-0.091 -0.02,-0.017 -0.04,-0.034 -0.057,-0.053 -0.04,-0.044 -0.073,-0.094 -0.1,-0.148 -0.009,-0.018 -0.021,-0.032 -0.028,-0.05 -0.002,-0.004 -0.005,-0.007 -0.007,-0.011 -0.027,-0.073 -0.039,-0.148 -0.041,-0.224 0,-0.005 -0.003,-0.01 -0.003,-0.017 v -25.45 c 0,-0.372 0.301,-0.674 0.673,-0.674 H 1.765 c 0.372,0 0.673,0.302 0.673,0.674 v 25.45 c 0,0.006 -0.003,0.011 -0.003,0.016" />
      </g>
    </g>
  </g>
</svg>