<svg id="search" xmlns:svg="http://www.w3.org/2000/svg" xmlns="http://www.w3.org/2000/svg" viewBox="0 0 13.5104 15.596">
  <g transform="matrix(1.3333333,0,0,-1.3333333,0,15.596)">
    <g clip-path="url(#clipPath18)">
      <g transform="translate(4.2393,5.2893)">
        <path d="M 0,0 C -1.208,0.918 -1.443,2.642 -0.525,3.85 0.394,5.058 2.117,5.293 3.325,4.375 4.533,3.457 4.769,1.733 3.85,0.524 2.932,-0.683 1.208,-0.918 0,0 M 5.03,-0.373 C 6.485,1.541 6.061,4.294 4.059,5.674 2.273,6.905 -0.225,6.553 -1.603,4.877 -2.761,3.469 -2.851,1.56 -2.005,0.085 c 0.219,-0.383 0.197,-0.858 -0.07,-1.21 l -1.947,-2.561 c -0.319,-0.419 -0.29,-1.032 0.111,-1.372 0.429,-0.362 1.067,-0.288 1.402,0.152 l 1.981,2.607 c 0.265,0.347 0.712,0.502 1.135,0.393 1.599,-0.413 3.361,0.135 4.423,1.533" />
      </g>
      <g transform="translate(6.7998,8.1199)">
        <path d="m 0,0 c -0.274,-0.361 -0.789,-0.431 -1.15,-0.157 -0.361,0.275 -0.431,0.79 -0.157,1.151 0.275,0.36 0.789,0.43 1.151,0.156 C 0.205,0.876 0.274,0.361 0,0" />
      </g>
    </g>
  </g>
</svg>