<svg id="youtube" xmlns:svg="http://www.w3.org/2000/svg" xmlns="http://www.w3.org/2000/svg" viewBox="0 0 24.000294 17.000013">
  <path d="m 23.469294,2.4290138 0.03,0.196 c -0.29,-1.029 -1.073,-1.82299998 -2.068,-2.11199998 l -0.021,-0.005 c -1.871,-0.508000000401 -9.4,-0.508000000401 -9.4,-0.508000000401 0,0 -7.5099998,-0.0099999996 -9.3999998,0.508000000401 -1.014,0.294 -1.798,1.08799998 -2.083,2.09599998 l -0.005,0.021 c -0.699,3.651 -0.704,8.0380002 0.031,11.9470002 l -0.031,-0.198 c 0.29,1.029 1.073,1.823 2.068,2.112 l 0.021,0.005 c 1.869,0.509 9.3999998,0.509 9.3999998,0.509 0,0 7.509,0 9.4,-0.509 1.015,-0.294 1.799,-1.088 2.084,-2.096 l 0.005,-0.021 c 0.318,-1.698 0.5,-3.652 0.5,-5.6480002 0,-0.073 0,-0.147 -0.001,-0.221 0.001,-0.068 0.001,-0.149 0.001,-0.23 0,-1.997 -0.182,-3.951 -0.531,-5.846 z M 9.6082942,12.151014 V 4.8580138 l 6.2659998,3.652 z"/>
</svg>
