<?xml version="1.0" encoding="UTF-8" standalone="no"?>
<!-- Creator: CorelDRAW X6 -->

<svg
   xmlns:dc="http://purl.org/dc/elements/1.1/"
   xmlns:cc="http://creativecommons.org/ns#"
   xmlns:rdf="http://www.w3.org/1999/02/22-rdf-syntax-ns#"
   xmlns:svg="http://www.w3.org/2000/svg"
   xmlns="http://www.w3.org/2000/svg"
   xmlns:sodipodi="http://sodipodi.sourceforge.net/DTD/sodipodi-0.dtd"
   xmlns:inkscape="http://www.inkscape.org/namespaces/inkscape"
   xml:space="preserve"
   width="187.78mm"
   height="20.360001mm"
   version="1.1"
   style="clip-rule:evenodd;fill-rule:evenodd;image-rendering:optimizeQuality;shape-rendering:geometricPrecision;text-rendering:geometricPrecision"
   viewBox="0 0 18778 2036.0001"
   id="svg10"
   sodipodi:docname="EURO logo.svg"
   inkscape:version="0.92.3 (2405546, 2018-03-11)"><metadata
   id="metadata14"><rdf:RDF><cc:Work
       rdf:about=""><dc:format>image/svg+xml</dc:format><dc:type
         rdf:resource="http://purl.org/dc/dcmitype/StillImage" /><dc:title></dc:title></cc:Work></rdf:RDF></metadata><sodipodi:namedview
   pagecolor="#ffffff"
   bordercolor="#666666"
   borderopacity="1"
   objecttolerance="10"
   gridtolerance="10"
   guidetolerance="10"
   inkscape:pageopacity="0"
   inkscape:pageshadow="2"
   inkscape:window-width="1360"
   inkscape:window-height="745"
   id="namedview12"
   showgrid="false"
   inkscape:pagecheckerboard="true"
   fit-margin-top="0"
   fit-margin-left="0"
   fit-margin-right="0"
   fit-margin-bottom="0"
   inkscape:zoom="0.29734127"
   inkscape:cx="361.81417"
   inkscape:cy="20.447243"
   inkscape:window-x="-8"
   inkscape:window-y="-8"
   inkscape:window-maximized="1"
   inkscape:current-layer="svg10" />
 <defs
   id="defs4">
  <style
   type="text/css"
   id="style2">
   <![CDATA[
    .fil0 {fill:white;fill-rule:nonzero}
   ]]>
  </style>
 </defs>
 <g
   id="Слой_x0020_1"
   transform="translate(-5277,-9005)">
  <metadata
   id="CorelCorpID_0Corel-Layer" />
  <path
   class="fil0"
   d="M 6584,10402 H 5576 c 7,118 42,209 105,276 63,65 147,99 251,99 93,0 171,-20 233,-59 62,-39 116,-102 162,-189 l 243,136 c -70,127 -158,221 -263,283 -105,62 -227,93 -368,93 -202,0 -363,-62 -483,-185 -119,-123 -179,-287 -179,-493 0,-198 61,-360 185,-487 124,-127 283,-191 477,-191 203,0 361,58 474,175 114,116 171,278 171,487 z m -299,-194 c -12,-91 -47,-160 -104,-207 -58,-48 -137,-71 -237,-71 -95,0 -171,23 -228,69 -58,46 -98,116 -122,209 z m 878,-479 v 710 c 0,122 26,210 76,263 51,53 133,80 246,80 113,0 195,-27 246,-80 50,-53 75,-141 75,-263 v -710 h 289 v 624 c 0,241 -48,416 -145,525 -96,109 -251,163 -463,163 -215,0 -371,-54 -467,-162 -97,-108 -145,-283 -145,-526 v -624 z m 1610,201 c 31,-83 72,-145 123,-185 51,-40 114,-60 189,-60 41,0 81,5 121,15 39,10 78,24 116,42 l -104,245 c -25,-18 -51,-31 -80,-39 -29,-9 -61,-13 -97,-13 -95,0 -164,38 -206,115 -41,77 -62,206 -62,386 v 553 H 8484 V 9727 h 289 z m 1704,433 c 0,-117 -38,-216 -113,-297 -75,-81 -167,-122 -276,-122 -109,0 -200,41 -276,122 -76,81 -114,180 -114,297 0,117 38,216 114,297 76,82 167,122 276,122 108,0 199,-40 275,-122 76,-81 114,-180 114,-297 z m -1083,-3 c 0,-92 17,-179 52,-260 35,-83 86,-156 151,-219 65,-63 139,-111 224,-145 84,-34 172,-51 264,-51 95,0 184,17 268,51 84,34 159,83 225,149 67,64 117,137 152,219 34,81 52,167 52,256 0,94 -18,181 -52,262 -34,82 -84,154 -149,217 -69,66 -146,117 -230,151 -84,34 -173,51 -266,51 -92,0 -179,-17 -264,-51 -83,-34 -158,-84 -224,-148 -66,-66 -117,-139 -152,-221 -34,-81 -51,-168 -51,-261 z m 1982,629 h -289 V 9729 h 271 v 206 c 58,-88 123,-152 196,-192 73,-40 160,-60 259,-60 98,0 180,20 244,61 65,42 114,104 148,189 66,-88 137,-151 212,-191 75,-39 160,-59 256,-59 83,0 155,15 218,45 62,31 110,76 144,134 17,28 28,60 36,98 7,38 11,93 11,164 v 101 764 h -289 v -647 c 0,-169 -18,-281 -54,-335 -35,-53 -99,-80 -191,-80 -114,0 -195,36 -243,109 -48,72 -72,198 -72,379 v 574 h -292 v -647 c 0,-156 -18,-264 -56,-325 -38,-60 -102,-90 -195,-90 -56,0 -108,13 -155,39 -47,26 -84,61 -112,106 -18,29 -30,65 -37,108 -7,42 -10,121 -10,235 z m 3307,-587 h -1008 c 7,118 42,209 105,276 63,65 147,99 252,99 93,0 170,-20 232,-59 62,-39 116,-102 163,-189 l 243,136 c -71,127 -159,221 -263,283 -105,62 -228,93 -369,93 -202,0 -363,-62 -482,-185 -120,-123 -180,-287 -180,-493 0,-198 62,-360 186,-487 123,-127 282,-191 476,-191 203,0 361,58 475,175 113,116 170,278 170,487 z m -299,-194 c -11,-91 -46,-160 -104,-207 -58,-48 -136,-71 -236,-71 -95,0 -172,23 -229,69 -58,46 -98,116 -121,209 z m 1540,-120 c -44,-48 -95,-86 -154,-111 -59,-26 -123,-39 -191,-39 -118,0 -212,38 -284,114 -70,77 -106,177 -106,303 0,132 36,235 107,309 72,75 170,113 296,113 70,0 133,-14 188,-40 54,-26 103,-66 144,-119 v 333 c -53,30 -110,52 -170,67 -61,15 -126,23 -194,23 -197,0 -358,-63 -483,-189 -125,-125 -187,-289 -187,-489 0,-203 65,-366 194,-491 128,-125 297,-187 505,-187 66,0 126,7 181,20 55,13 107,32 154,59 z m 276,901 V 9041 h 239 v 699 c 112,-130 253,-194 423,-194 105,0 195,20 272,62 78,41 133,98 166,170 33,73 50,179 50,317 v 894 h -240 v -894 c 0,-120 -25,-207 -77,-261 -52,-55 -125,-82 -220,-82 -71,0 -138,18 -200,55 -63,37 -107,87 -134,150 -27,62 -40,149 -40,260 v 772 z m 2720,0 h -289 v -163 c -51,73 -112,127 -180,162 -69,35 -147,53 -236,53 -178,0 -318,-61 -421,-183 -102,-121 -153,-288 -153,-500 0,-201 52,-364 157,-487 104,-124 241,-186 409,-186 103,0 191,22 264,65 73,43 126,105 160,185 v -206 h 289 z m -281,-634 c 0,-130 -30,-231 -91,-304 -61,-73 -146,-109 -255,-109 -109,0 -194,37 -257,112 -62,75 -93,179 -93,312 0,134 30,237 90,310 60,72 145,109 255,109 104,0 188,-40 253,-119 65,-79 98,-182 98,-311 z m 679,634 V 9729 h 272 v 206 c 57,-87 125,-150 203,-190 78,-40 173,-60 284,-60 94,0 174,15 240,45 66,30 118,74 155,132 22,35 38,75 48,121 10,46 15,127 15,242 v 764 h -291 v -647 c 0,-166 -20,-276 -61,-330 -40,-55 -112,-82 -214,-82 -68,0 -128,12 -181,37 -52,25 -94,60 -124,105 -21,30 -36,69 -44,117 -9,47 -13,122 -13,226 v 574 z m 1576,-1805 c 0,-49 18,-91 54,-126 36,-36 78,-53 128,-53 51,0 94,17 128,51 34,34 51,77 51,128 0,52 -17,95 -51,130 -35,35 -77,52 -128,52 -50,0 -92,-18 -128,-54 -36,-36 -54,-78 -54,-128 z m 38,1805 V 9729 h 289 v 1260 z m 1642,-901 c -45,-48 -96,-86 -155,-111 -59,-26 -123,-39 -191,-39 -118,0 -212,38 -283,114 -71,77 -107,177 -107,303 0,132 36,235 108,309 71,75 169,113 295,113 70,0 133,-14 188,-40 55,-26 103,-66 145,-119 v 333 c -54,30 -111,52 -171,67 -61,15 -125,23 -194,23 -197,0 -358,-63 -483,-189 -124,-125 -187,-289 -187,-489 0,-203 65,-366 194,-491 129,-125 297,-187 506,-187 65,0 125,7 180,20 55,13 107,32 155,59 z m 1481,901 h -289 v -163 c -51,73 -112,127 -180,162 -69,35 -147,53 -236,53 -178,0 -318,-61 -421,-183 -102,-121 -153,-288 -153,-500 0,-201 52,-364 157,-487 104,-124 241,-186 409,-186 103,0 191,22 264,65 73,43 126,105 160,185 v -206 h 289 z m -281,-634 c 0,-130 -30,-231 -91,-304 -61,-73 -146,-109 -255,-109 -109,0 -194,37 -257,112 -62,75 -93,179 -93,312 0,134 30,237 90,310 60,72 145,109 255,109 104,0 188,-40 253,-119 65,-79 98,-182 98,-311 z"
   id="path7"
   inkscape:connector-curvature="0"
   style="fill:#ffffff;fill-rule:nonzero" />
 </g>
</svg>