<?xml version="1.0" encoding="UTF-8" standalone="no"?>
<!-- Creator: CorelDRAW X6 -->

<svg
   xmlns:dc="http://purl.org/dc/elements/1.1/"
   xmlns:cc="http://creativecommons.org/ns#"
   xmlns:rdf="http://www.w3.org/1999/02/22-rdf-syntax-ns#"
   xmlns:svg="http://www.w3.org/2000/svg"
   xmlns="http://www.w3.org/2000/svg"
   xmlns:sodipodi="http://sodipodi.sourceforge.net/DTD/sodipodi-0.dtd"
   xmlns:inkscape="http://www.inkscape.org/namespaces/inkscape"
   xml:space="preserve"
   width="48.040001mm"
   height="39.600002mm"
   version="1.1"
   style="clip-rule:evenodd;fill-rule:evenodd;image-rendering:optimizeQuality;shape-rendering:geometricPrecision;text-rendering:geometricPrecision"
   viewBox="0 0 4804.0002 3960.0002"
   id="svg52"
   sodipodi:docname="logo-mini.svg"
   inkscape:version="0.92.3 (2405546, 2018-03-11)"><metadata
   id="metadata56"><rdf:RDF><cc:Work
       rdf:about=""><dc:format>image/svg+xml</dc:format><dc:type
         rdf:resource="http://purl.org/dc/dcmitype/StillImage" /><dc:title></dc:title></cc:Work></rdf:RDF></metadata><sodipodi:namedview
   pagecolor="#ffffff"
   bordercolor="#666666"
   borderopacity="1"
   objecttolerance="10"
   gridtolerance="10"
   guidetolerance="10"
   inkscape:pageopacity="0"
   inkscape:pageshadow="2"
   inkscape:window-width="1360"
   inkscape:window-height="745"
   id="namedview54"
   showgrid="false"
   inkscape:pagecheckerboard="true"
   fit-margin-top="0"
   fit-margin-left="0"
   fit-margin-right="0"
   fit-margin-bottom="0"
   inkscape:zoom="0.29734127"
   inkscape:cx="246.61417"
   inkscape:cy="83.300789"
   inkscape:window-x="-8"
   inkscape:window-y="-8"
   inkscape:window-maximized="1"
   inkscape:current-layer="svg52" />
 <defs
   id="defs39">
  <style
   type="text/css"
   id="style37">
   <![CDATA[
    .fil0 {fill:white}
    .fil1 {fill:white;fill-rule:nonzero}
   ]]>
  </style>
 </defs>
 <g
   id="Слой_x0020_1"
   transform="translate(-8325,-8744)">
  <metadata
   id="CorelCorpID_0Corel-Layer" />
  <g
   id="_409073224">
   <path
   class="fil0"
   d="m 11465,9090 v 0 c -227,63 -387,250 -426,468 -7,43 -10,86 -8,131 2,43 9,88 21,132 v 1 0 c 63,227 251,387 469,426 v 0 c 42,7 86,10 130,8 44,-2 88,-9 133,-21 v 0 0 h 1 c 157,-44 282,-148 357,-280 75,-133 99,-294 56,-451 v -1 h -1 c -63,-228 -250,-387 -468,-426 -43,-8 -86,-11 -130,-9 -45,2 -89,9 -133,22 z m -10,-39 h 1 c 47,-13 94,-20 141,-22 47,-2 93,1 138,9 h 1 c 232,41 432,212 500,454 v 1 0 c 46,168 21,340 -59,481 -80,141 -213,252 -382,299 v 0 h -1 v 0 0 c -47,13 -94,21 -141,23 -47,2 -94,-1 -139,-9 -233,-42 -433,-212 -500,-455 v 0 0 0 c -13,-47 -21,-95 -23,-142 -2,-47 1,-93 9,-138 v -1 c 42,-232 212,-432 455,-499 z m 153,550 v 0 h -1 c -24,7 -41,27 -45,50 -1,5 -2,9 -1,14 0,5 1,10 2,14 v 0 0 c 7,25 27,42 50,46 5,1 10,2 14,1 5,0 10,-1 15,-2 v 0 0 c 24,-7 41,-27 46,-50 1,-5 1,-9 1,-14 -1,-5 -1,-10 -2,-14 l -1,-1 v 0 0 c -4,-17 -16,-30 -30,-38 -14,-8 -31,-11 -48,-6 z m -11,-38 v 0 0 c 28,-8 56,-4 79,9 23,13 41,35 48,62 v 0 1 h 1 v 0 c 2,8 3,16 3,23 1,8 0,15 -1,23 -7,38 -35,70 -75,81 v 0 0 c -8,2 -16,4 -23,4 -8,0 -15,0 -23,-2 -37,-7 -70,-34 -81,-74 v 0 0 0 c -2,-8 -4,-16 -4,-24 v 0 c 0,-7 0,-15 2,-22 7,-38 34,-70 74,-81 z m -218,-785 122,145 117,3 121,-182 115,29 34,187 99,61 196,-97 85,83 -64,179 55,102 219,15 31,113 -145,123 -3,116 182,122 -30,114 -186,35 -61,98 97,197 -83,84 -179,-64 -102,56 -15,218 -113,32 -123,-145 -116,-3 -122,182 -114,-30 -34,-187 -99,-61 -197,98 -84,-84 64,-178 -56,-102 -218,-15 -32,-114 145,-122 3,-117 -182,-121 30,-115 187,-34 61,-99 -97,-196 83,-85 178,65 102,-56 15,-219 z"
   id="path42"
   inkscape:connector-curvature="0"
   style="fill:#ffffff" />
   <path
   class="fil0"
   d="m 11853,10876 v 0 0 c -283,64 -491,284 -552,550 -12,52 -19,105 -19,159 0,54 6,109 18,165 v 0 0 c 64,284 285,491 550,552 52,12 105,19 160,19 54,0 109,-6 164,-18 v 0 h 1 v 0 c 283,-64 491,-285 552,-550 12,-52 18,-105 19,-159 0,-54 -6,-110 -18,-165 v 0 l -1,-1 v 0 0 c -44,-197 -164,-357 -322,-457 -158,-100 -355,-140 -551,-95 z m -9,-39 h 1 v 0 c 207,-46 414,-5 581,101 166,105 293,274 340,481 v 0 1 0 0 c 13,59 19,117 19,174 0,57 -7,113 -20,168 -64,280 -283,512 -582,579 v 0 0 0 c -58,14 -116,20 -174,19 -57,0 -113,-6 -167,-19 -280,-64 -513,-283 -581,-582 v 0 -1 c -13,-58 -19,-116 -18,-173 0,-57 7,-114 19,-168 65,-280 284,-512 582,-580 z m 152,672 v 0 h -1 v 0 c -22,5 -40,18 -51,36 -11,18 -16,40 -11,62 v 0 1 0 c 7,31 32,55 62,62 6,1 12,2 18,2 6,0 12,-1 18,-2 v 0 h 1 v 0 h 1 v 0 c 22,-5 39,-19 51,-36 11,-18 15,-40 11,-62 l -1,-1 v 0 0 c -5,-22 -18,-40 -36,-52 -18,-11 -40,-15 -62,-10 z m -9,-39 h 1 c 32,-7 65,0 91,16 26,17 46,43 54,76 v 0 0 1 c 7,33 1,65 -16,92 -16,26 -43,46 -76,53 v 0 0 1 h -1 v 0 c -9,2 -18,3 -27,2 -9,0 -18,-1 -27,-3 -44,-10 -81,-44 -91,-92 v 0 h -1 v 0 c -7,-33 0,-66 17,-92 16,-26 43,-46 76,-54 z m -220,-976 141,185 142,11 160,-216 138,44 30,230 117,80 246,-106 98,106 -89,214 61,129 267,31 31,141 -184,141 -11,141 215,160 -43,138 -231,30 -80,118 106,246 -106,97 -215,-89 -128,62 -30,266 -141,31 -142,-184 -141,-11 -160,215 -138,-43 -30,-230 -117,-80 -246,106 -98,-106 89,-215 -62,-128 -266,-31 -31,-141 184,-141 11,-142 -215,-160 43,-137 230,-31 80,-117 -106,-246 106,-98 215,89 128,-61 31,-266 z"
   id="path44"
   inkscape:connector-curvature="0"
   style="fill:#ffffff" />
   <path
   class="fil0"
   d="m 9732,10160 v 0 0 0 0 c -254,0 -485,104 -651,270 -167,167 -270,398 -270,652 v 0 0 0 0 c 0,255 103,485 270,652 166,167 397,270 651,270 v 0 0 h 1 v 0 c 254,0 484,-103 651,-270 167,-167 270,-397 270,-652 v 0 0 0 0 c 0,-254 -103,-485 -270,-651 v -1 c -167,-166 -397,-270 -652,-270 z m 0,-39 v 0 0 c 266,0 506,108 680,282 v -1 c 174,174 282,415 282,680 v 0 0 0 0 c 0,266 -108,506 -282,680 -174,174 -414,282 -679,282 v 0 h -1 v 0 0 c -265,0 -506,-108 -679,-282 -174,-174 -282,-414 -282,-680 v 0 0 0 0 c 0,-265 108,-506 282,-680 173,-173 414,-281 679,-281 z m 0,853 v 0 0 0 0 c -30,0 -57,12 -76,32 v 0 c -20,19 -32,46 -32,76 v 0 0 0 0 c 0,30 12,57 32,77 19,20 46,32 76,32 v 0 0 h 1 v 0 c 29,0 56,-12 76,-32 20,-20 32,-47 32,-77 v 0 0 0 0 c 0,-30 -12,-57 -32,-76 -20,-20 -47,-32 -77,-32 z m 0,-40 v 0 0 c 41,0 78,17 105,44 27,26 43,63 44,104 v 0 0 0 0 c 0,41 -17,78 -44,105 -27,27 -64,43 -104,43 v 0 h -1 v 0 0 c -41,0 -78,-16 -104,-43 -27,-27 -44,-64 -44,-105 v 0 0 0 0 c 0,-41 17,-78 44,-105 v 0 c 26,-26 63,-43 104,-43 z m 0,-1259 122,264 170,53 255,-219 157,91 -27,290 122,130 330,-62 90,157 -168,238 40,173 317,111 -1,181 -264,122 -52,170 219,255 -91,157 -290,-27 -130,121 62,331 -157,90 -238,-168 -174,40 -111,316 h -181 l -122,-264 -170,-52 -254,219 -157,-91 26,-290 -121,-131 -330,63 -90,-157 168,-238 -40,-174 -317,-110 v -182 l 265,-122 52,-170 -219,-255 91,-156 290,26 130,-121 -62,-330 157,-90 238,168 173,-40 111,-317 z"
   id="path46"
   inkscape:connector-curvature="0"
   style="fill:#ffffff" />
  </g>
 </g>
</svg>