<?xml version="1.0" encoding="UTF-8" standalone="no"?>
<!-- Creator: CorelDRAW X6 -->

<svg
   xmlns:dc="http://purl.org/dc/elements/1.1/"
   xmlns:cc="http://creativecommons.org/ns#"
   xmlns:rdf="http://www.w3.org/1999/02/22-rdf-syntax-ns#"
   xmlns:svg="http://www.w3.org/2000/svg"
   xmlns="http://www.w3.org/2000/svg"
   xmlns:sodipodi="http://sodipodi.sourceforge.net/DTD/sodipodi-0.dtd"
   xmlns:inkscape="http://www.inkscape.org/namespaces/inkscape"
   xml:space="preserve"
   width="156.06mm"
   height="39.84mm"
   version="1.1"
   style="clip-rule:evenodd;fill-rule:evenodd;image-rendering:optimizeQuality;shape-rendering:geometricPrecision;text-rendering:geometricPrecision"
   viewBox="0 0 15606 3984"
   id="svg52"
   sodipodi:docname="PMZ logo.svg"
   inkscape:version="0.92.3 (2405546, 2018-03-11)"><metadata
   id="metadata56"><rdf:RDF><cc:Work
       rdf:about=""><dc:format>image/svg+xml</dc:format><dc:type
         rdf:resource="http://purl.org/dc/dcmitype/StillImage" /><dc:title></dc:title></cc:Work></rdf:RDF></metadata><sodipodi:namedview
   pagecolor="#ffffff"
   bordercolor="#666666"
   borderopacity="1"
   objecttolerance="10"
   gridtolerance="10"
   guidetolerance="10"
   inkscape:pageopacity="0"
   inkscape:pageshadow="2"
   inkscape:window-width="1360"
   inkscape:window-height="745"
   id="namedview54"
   showgrid="false"
   inkscape:pagecheckerboard="true"
   fit-margin-top="0"
   fit-margin-left="0"
   fit-margin-right="0"
   fit-margin-bottom="0"
   inkscape:zoom="0.29734127"
   inkscape:cx="246.61417"
   inkscape:cy="83.300786"
   inkscape:window-x="-8"
   inkscape:window-y="-8"
   inkscape:window-maximized="1"
   inkscape:current-layer="svg52" />
 <defs
   id="defs39">
  <style
   type="text/css"
   id="style37">
   <![CDATA[
    .fil0 {fill:white}
    .fil1 {fill:white;fill-rule:nonzero}
   ]]>
  </style>
 </defs>
 <g
   id="Слой_x0020_1"
   transform="translate(-8325,-8720)">
  <metadata
   id="CorelCorpID_0Corel-Layer" />
  <g
   id="_409073224">
   <path
   class="fil0"
   d="m 11465,9090 v 0 c -227,63 -387,250 -426,468 -7,43 -10,86 -8,131 2,43 9,88 21,132 v 1 0 c 63,227 251,387 469,426 v 0 c 42,7 86,10 130,8 44,-2 88,-9 133,-21 v 0 0 h 1 c 157,-44 282,-148 357,-280 75,-133 99,-294 56,-451 v -1 h -1 c -63,-228 -250,-387 -468,-426 -43,-8 -86,-11 -130,-9 -45,2 -89,9 -133,22 z m -10,-39 h 1 c 47,-13 94,-20 141,-22 47,-2 93,1 138,9 h 1 c 232,41 432,212 500,454 v 1 0 c 46,168 21,340 -59,481 -80,141 -213,252 -382,299 v 0 h -1 v 0 0 c -47,13 -94,21 -141,23 -47,2 -94,-1 -139,-9 -233,-42 -433,-212 -500,-455 v 0 0 0 c -13,-47 -21,-95 -23,-142 -2,-47 1,-93 9,-138 v -1 c 42,-232 212,-432 455,-499 z m 153,550 v 0 h -1 c -24,7 -41,27 -45,50 -1,5 -2,9 -1,14 0,5 1,10 2,14 v 0 0 c 7,25 27,42 50,46 5,1 10,2 14,1 5,0 10,-1 15,-2 v 0 0 c 24,-7 41,-27 46,-50 1,-5 1,-9 1,-14 -1,-5 -1,-10 -2,-14 l -1,-1 v 0 0 c -4,-17 -16,-30 -30,-38 -14,-8 -31,-11 -48,-6 z m -11,-38 v 0 0 c 28,-8 56,-4 79,9 23,13 41,35 48,62 v 0 1 h 1 v 0 c 2,8 3,16 3,23 1,8 0,15 -1,23 -7,38 -35,70 -75,81 v 0 0 c -8,2 -16,4 -23,4 -8,0 -15,0 -23,-2 -37,-7 -70,-34 -81,-74 v 0 0 0 c -2,-8 -4,-16 -4,-24 v 0 c 0,-7 0,-15 2,-22 7,-38 34,-70 74,-81 z m -218,-785 122,145 117,3 121,-182 115,29 34,187 99,61 196,-97 85,83 -64,179 55,102 219,15 31,113 -145,123 -3,116 182,122 -30,114 -186,35 -61,98 97,197 -83,84 -179,-64 -102,56 -15,218 -113,32 -123,-145 -116,-3 -122,182 -114,-30 -34,-187 -99,-61 -197,98 -84,-84 64,-178 -56,-102 -218,-15 -32,-114 145,-122 3,-117 -182,-121 30,-115 187,-34 61,-99 -97,-196 83,-85 178,65 102,-56 15,-219 z"
   id="path42"
   inkscape:connector-curvature="0"
   style="fill:#ffffff" />
   <path
   class="fil0"
   d="m 11853,10876 v 0 0 c -283,64 -491,284 -552,550 -12,52 -19,105 -19,159 0,54 6,109 18,165 v 0 0 c 64,284 285,491 550,552 52,12 105,19 160,19 54,0 109,-6 164,-18 v 0 h 1 v 0 c 283,-64 491,-285 552,-550 12,-52 18,-105 19,-159 0,-54 -6,-110 -18,-165 v 0 l -1,-1 v 0 0 c -44,-197 -164,-357 -322,-457 -158,-100 -355,-140 -551,-95 z m -9,-39 h 1 v 0 c 207,-46 414,-5 581,101 166,105 293,274 340,481 v 0 1 0 0 c 13,59 19,117 19,174 0,57 -7,113 -20,168 -64,280 -283,512 -582,579 v 0 0 0 c -58,14 -116,20 -174,19 -57,0 -113,-6 -167,-19 -280,-64 -513,-283 -581,-582 v 0 -1 c -13,-58 -19,-116 -18,-173 0,-57 7,-114 19,-168 65,-280 284,-512 582,-580 z m 152,672 v 0 h -1 v 0 c -22,5 -40,18 -51,36 -11,18 -16,40 -11,62 v 0 1 0 c 7,31 32,55 62,62 6,1 12,2 18,2 6,0 12,-1 18,-2 v 0 h 1 v 0 h 1 v 0 c 22,-5 39,-19 51,-36 11,-18 15,-40 11,-62 l -1,-1 v 0 0 c -5,-22 -18,-40 -36,-52 -18,-11 -40,-15 -62,-10 z m -9,-39 h 1 c 32,-7 65,0 91,16 26,17 46,43 54,76 v 0 0 1 c 7,33 1,65 -16,92 -16,26 -43,46 -76,53 v 0 0 1 h -1 v 0 c -9,2 -18,3 -27,2 -9,0 -18,-1 -27,-3 -44,-10 -81,-44 -91,-92 v 0 h -1 v 0 c -7,-33 0,-66 17,-92 16,-26 43,-46 76,-54 z m -220,-976 141,185 142,11 160,-216 138,44 30,230 117,80 246,-106 98,106 -89,214 61,129 267,31 31,141 -184,141 -11,141 215,160 -43,138 -231,30 -80,118 106,246 -106,97 -215,-89 -128,62 -30,266 -141,31 -142,-184 -141,-11 -160,215 -138,-43 -30,-230 -117,-80 -246,106 -98,-106 89,-215 -62,-128 -266,-31 -31,-141 184,-141 11,-142 -215,-160 43,-137 230,-31 80,-117 -106,-246 106,-98 215,89 128,-61 31,-266 z"
   id="path44"
   inkscape:connector-curvature="0"
   style="fill:#ffffff" />
   <path
   class="fil0"
   d="m 9732,10160 v 0 0 0 0 c -254,0 -485,104 -651,270 -167,167 -270,398 -270,652 v 0 0 0 0 c 0,255 103,485 270,652 166,167 397,270 651,270 v 0 0 h 1 v 0 c 254,0 484,-103 651,-270 167,-167 270,-397 270,-652 v 0 0 0 0 c 0,-254 -103,-485 -270,-651 v -1 c -167,-166 -397,-270 -652,-270 z m 0,-39 v 0 0 c 266,0 506,108 680,282 v -1 c 174,174 282,415 282,680 v 0 0 0 0 c 0,266 -108,506 -282,680 -174,174 -414,282 -679,282 v 0 h -1 v 0 0 c -265,0 -506,-108 -679,-282 -174,-174 -282,-414 -282,-680 v 0 0 0 0 c 0,-265 108,-506 282,-680 173,-173 414,-281 679,-281 z m 0,853 v 0 0 0 0 c -30,0 -57,12 -76,32 v 0 c -20,19 -32,46 -32,76 v 0 0 0 0 c 0,30 12,57 32,77 19,20 46,32 76,32 v 0 0 h 1 v 0 c 29,0 56,-12 76,-32 20,-20 32,-47 32,-77 v 0 0 0 0 c 0,-30 -12,-57 -32,-76 -20,-20 -47,-32 -77,-32 z m 0,-40 v 0 0 c 41,0 78,17 105,44 27,26 43,63 44,104 v 0 0 0 0 c 0,41 -17,78 -44,105 -27,27 -64,43 -104,43 v 0 h -1 v 0 0 c -41,0 -78,-16 -104,-43 -27,-27 -44,-64 -44,-105 v 0 0 0 0 c 0,-41 17,-78 44,-105 v 0 c 26,-26 63,-43 104,-43 z m 0,-1259 122,264 170,53 255,-219 157,91 -27,290 122,130 330,-62 90,157 -168,238 40,173 317,111 -1,181 -264,122 -52,170 219,255 -91,157 -290,-27 -130,121 62,331 -157,90 -238,-168 -174,40 -111,316 h -181 l -122,-264 -170,-52 -254,219 -157,-91 26,-290 -121,-131 -330,63 -90,-157 168,-238 -40,-174 -317,-110 v -182 l 265,-122 52,-170 -219,-255 91,-156 290,26 130,-121 -62,-330 157,-90 238,168 173,-40 111,-317 z"
   id="path46"
   inkscape:connector-curvature="0"
   style="fill:#ffffff" />
   <path
   class="fil1"
   d="m 14051,9743 v -730 h 186 v 730 h 101 v -826 h -446 v 93 h 58 v 733 z m -55,-773 h -62 v -10 h 359 v 741 h -10 v -731 h -277 v 731 h -10 z m 442,773 h 102 l 32,-216 h 172 l 32,216 h 102 l -123,-828 h -194 z m 292,-316 h -144 l 61,-412 h 21 z m -15,-467 111,741 h -10 l -33,-219 h -251 l -32,219 h -10 c 33,-229 76,-513 110,-741 z m -107,10 -74,502 h 247 l -73,-502 z m 434,717 h 185 l 91,-91 v -169 l -97,-97 h -179 z m -56,56 h 265 l 123,-124 v -221 l -83,-82 61,-72 v -202 l -123,-125 h -243 z m 101,-470 v -253 h 100 l 64,64 v 120 l -59,69 z m 0,102 h 115 l 71,70 v 132 l -64,64 h -122 z m -55,-412 h 178 l 97,97 v 166 l -77,98 99,98 v 178 l -97,97 h -200 z m 173,10 h -163 v 347 h 178 l 77,-97 v -158 z m 324,677 h -64 v 93 h 153 l 104,-729 h 99 v 729 h 101 v -828 h -287 z m -20,45 h 58 l 107,-736 h 202 v 738 h -9 v -727 h -185 l -106,735 h -67 z m 919,-645 -93,-92 h -113 l -93,92 v 544 l 93,99 h 113 l 93,-99 z m 54,-20 -124,-125 h -158 l -125,125 v 583 l 124,133 h 159 l 124,-133 z m -44,567 -99,106 h -121 l -99,-106 v -550 l 99,-99 h 121 l 99,99 z m -123,50 h -73 l -68,-72 v -505 l 67,-66 h 75 l 66,66 v 505 z m 383,40 h 185 l 91,-91 v -169 l -98,-97 h -178 z m -57,56 h 265 l 124,-124 v -221 l -83,-82 61,-72 v -202 l -124,-125 h -243 z m 102,-470 v -253 h 99 l 64,64 v 120 l -58,69 z m 0,102 h 115 l 70,70 v 132 l -64,64 h -121 z m -55,-412 h 177 l 98,97 v 166 l -78,98 100,98 v 178 l -97,97 h -200 z m 173,10 h -163 v 347 h 177 l 78,-97 v -158 z m 617,186 h 101 v -125 l -121,-126 h -157 l -120,126 v 581 l 119,133 h 158 l 121,-133 v -131 l -101,1 v 92 l -64,71 h -69 l -63,-71 v -503 l 61,-65 h 72 l 63,65 z m 45,-42 v -61 l -89,-93 h -109 l -89,93 v 538 l 89,99 h 109 l 89,-99 v -68 h 10 v 72 l -95,105 h -118 l -94,-105 v -546 l 94,-99 h 118 l 95,99 v 65 z m 306,-199 h -100 v 825 h 100 v -392 h 53 l 183,392 h 111 l -207,-442 181,-383 h -110 l -158,332 h -53 z m -55,45 h 10 v 333 h 127 l 159,-336 h 11 l -161,341 187,400 h -11 l -185,-396 h -127 v 396 h -10 z m 598,780 129,-407 65,-209 h 4 l -6,218 v 398 h 101 v -825 h -136 l -94,296 -77,271 h -4 l 12,-277 v -290 h -101 v 825 z m -62,-51 v -729 h 10 v 719 h 12 l 229,-718 h 58 v 737 h -10 v -727 h -40 l -230,718 z m 621,51 129,-407 65,-209 h 3 l -5,218 v 398 h 100 v -825 h -136 l -93,296 -78,271 h -3 l 11,-277 v -290 h -100 v 825 z m -62,-51 v -729 h 10 v 719 h 12 l 228,-718 h 59 v 737 h -10 v -727 h -41 l -229,718 z m 70,-830 h 145 l 73,-65 -69,-77 -40,39 h -72 l -40,-39 -68,77 z m 128,-47 h -111 l -33,-29 8,-8 28,27 h 105 l 30,-27 8,8 z m -4664,2297 h 100 v -827 h -199 l -47,329 -29,258 h -3 l -30,-263 -46,-324 c -89,0 -170,0 -259,0 v 99 h 59 v 728 h 101 v -728 h 12 l 102,665 h 127 l 100,-665 h 12 z m -399,-728 v 686 h -10 v -686 z m 96,-45 c -61,0 -106,0 -168,0 v -11 h 177 l 101,668 h 35 l 98,-668 h 115 v 742 h -10 v -731 h -96 l -98,666 c -18,0 -35,0 -53,0 z m 503,773 h 101 l 32,-215 h 172 l 32,215 h 102 l -123,-827 h -194 z m 291,-315 h -143 l 60,-412 h 21 z m -14,-467 110,740 h -10 l -33,-218 h -251 l -32,218 h -9 c 33,-228 76,-512 110,-740 z m -107,10 -74,502 h 247 l -74,-502 z m 377,772 h 608 v -825 h -100 v 730 h -154 v -730 h -100 v 730 h -153 v -729 h -101 z m 45,-43 v -736 h 10 v 726 h 244 v -730 h 10 v 730 h 244 v -730 h 10 v 740 z m 829,43 129,-406 66,-210 h 3 l -6,219 v 397 h 101 v -824 h -136 l -94,296 -77,271 h -3 l 11,-277 v -290 h -101 v 824 z m -61,-50 v -729 h 9 v 719 h 13 l 228,-718 h 59 v 736 h -10 v -726 h -41 l -230,718 z m 614,50 v -364 h 187 v 364 h 100 v -824 h -100 v 364 h -187 v -364 h -100 v 824 z m -55,-779 h 10 v 362 h 277 v -365 h 10 v 740 h -10 v -365 h -277 v 365 h -10 z m 850,87 -94,-92 h -112 l -93,92 v 543 l 93,100 h 112 l 94,-100 z m 54,-21 -125,-124 h -157 l -125,124 v 584 l 123,133 h 159 l 125,-133 z m -44,568 -99,106 h -122 l -98,-106 v -550 l 98,-99 h 122 l 99,99 z m -124,49 h -72 l -68,-71 v -505 l 66,-66 h 75 l 67,66 v 505 z m 620,-488 h 100 v -124 l -120,-126 h -157 l -120,126 v 580 l 119,134 h 158 l 120,-134 v -130 l -100,1 v 92 l -64,70 h -70 l -63,-70 v -504 l 62,-65 h 72 l 63,65 z m 45,-41 v -61 l -90,-93 h -109 l -88,93 v 537 l 88,100 h 109 l 90,-100 v -67 h 10 v 72 l -95,105 h -118 l -94,-105 v -547 l 94,-98 h 118 l 95,98 v 66 z m 283,625 h 101 v -737 h 147 v -90 h -393 v 90 h 145 z m 46,-42 v -737 h -149 v -10 c 109,0 198,0 309,0 v 10 h -150 v 737 z m 568,-785 h -259 v 827 h 100 v -271 h 160 l 127,-134 v -296 z m -159,455 v -354 h 118 l 68,67 v 215 l -69,72 z m -55,-410 h 197 l 100,100 v 260 l -100,106 h -187 v 276 h -10 z m 10,11 v 445 h 182 l 94,-100 v -251 l -94,-94 z m 829,79 -94,-92 h -113 l -92,92 v 543 l 92,100 h 113 l 94,-100 z m 54,-21 -125,-124 h -158 l -124,124 v 584 l 123,133 h 159 l 125,-133 z m -44,568 -100,106 h -121 l -98,-106 v -550 l 98,-99 h 121 l 100,99 z m -124,49 h -73 l -67,-71 v -505 l 66,-66 h 75 l 67,66 v 505 z m 434,96 129,-406 65,-210 h 4 l -6,219 v 397 h 100 v -824 h -135 l -94,296 -77,271 h -4 l 11,-277 v -290 h -100 v 824 z m -62,-50 v -729 h 10 v 719 h 12 l 229,-718 h 58 v 736 h -10 v -726 h -41 l -229,718 z m 592,50 h 100 v -737 h 147 v -90 h -393 v 90 h 146 z m 45,-42 v -737 h -149 v -10 c 109,0 199,0 309,0 v 10 h -150 v 737 z m 410,-417 v -267 h 238 v -101 c -134,0 -205,0 -339,0 v 827 h 354 v -100 h -253 v -258 h 199 v -101 z m 193,-323 v 11 h -239 v 356 h 203 v 11 h -203 v 349 h 254 v 10 h -264 v -737 z m 203,690 h -64 v 92 h 153 l 104,-728 h 99 v 728 h 101 v -827 h -287 z m -20,45 h 58 l 107,-736 h 202 v 738 h -9 v -727 h -185 l -106,735 h -67 z m 954,-79 v -295 l -127,-134 h -160 v -272 h -101 v 827 h 260 z m -170,-328 68,72 v 215 l -67,67 h -118 v -354 z m -173,-332 h 10 v 276 h 187 l 100,106 v 260 l -100,99 h -197 z m 192,731 94,-94 v -251 l -94,-100 h -182 v 445 z m 400,55 v -364 h 187 v 364 h 100 v -824 h -100 v 364 h -187 v -364 h -100 v 824 z m -55,-779 h 10 v 362 h 277 v -365 h 10 v 740 h -10 v -365 h -277 v 365 h -10 z m 884,653 v -295 l -127,-134 h -160 v -272 h -100 v 827 h 259 z m -170,-328 68,72 v 215 l -67,67 h -118 v -354 z m -172,-332 h 10 v 276 h 186 l 101,106 v 260 l -101,99 h -196 z m 192,731 94,-94 v -251 l -94,-100 h -182 v 445 z m 364,55 v -827 c -86,0 -14,0 -100,0 v 827 z m -55,-787 h 10 v 747 h -10 z m 321,787 129,-406 65,-210 h 4 l -6,219 v 397 h 101 v -824 h -136 l -94,296 -77,271 h -4 l 11,-277 v -290 h -100 v 824 z m -62,-50 v -729 h 10 v 719 h 12 l 229,-718 h 58 v 736 h -10 v -726 h -40 l -230,718 z m 71,-830 h 145 l 72,-66 -68,-76 -41,39 h -72 l -39,-39 -69,76 z m 128,-47 h -112 l -33,-30 8,-7 29,27 h 105 l 29,-27 8,7 z m -9730,1905 h 94 l 71,70 v 158 l -63,66 h -70 l -62,-66 v -110 h -100 v 149 l 119,127 h 157 l 120,-127 v -244 l -83,-81 61,-73 v -182 l -115,-125 h -140 l -112,125 v 90 h 101 v -48 l 53,-64 h 56 l 56,64 v 100 l -59,70 h -84 z m 38,-55 h 74 l 77,-97 v -138 l -83,-92 h -94 l -80,92 v 33 h -10 v -37 l 86,-98 h 103 l 88,98 v 145 l -77,98 99,99 v 202 l -95,99 h -117 l -94,-99 v -90 h 10 v 85 l 89,94 h 108 l 88,-94 v -193 l -97,-97 h -75 z m 324,447 h 102 l 32,-215 h 172 l 32,215 h 102 l -123,-828 h -194 z m 292,-316 h -144 l 61,-411 h 21 z m -15,-466 111,740 h -10 l -33,-218 h -251 l -32,218 h -10 c 33,-228 76,-513 111,-740 z m -107,9 -74,503 h 248 l -74,-503 z m 434,718 h 186 l 90,-92 v -169 l -97,-97 h -179 z m -56,55 h 265 l 123,-123 v -221 l -82,-82 60,-73 v -202 l -123,-125 h -243 z m 101,-469 v -254 h 100 l 64,64 v 120 l -59,70 z m 0,102 h 115 l 71,69 v 133 l -64,64 h -122 z m -55,-412 h 178 l 97,97 v 166 l -77,98 99,98 v 178 l -97,97 h -200 z m 173,10 h -163 v 346 h 178 l 77,-97 v -158 z m 674,77 -94,-93 h -113 l -92,93 v 543 l 92,99 h 113 l 94,-99 z m 54,-21 -125,-125 h -158 l -124,125 v 584 l 123,132 h 159 l 125,-132 z m -44,567 -100,106 h -121 l -98,-106 v -549 l 98,-100 h 121 l 100,100 z m -124,50 h -73 l -67,-72 v -504 l 66,-66 h 75 l 66,66 v 504 z m 368,179 v -83 h 348 v 83 h 98 v -171 h -71 v -740 h -288 l -105,740 h -80 v 171 z m 274,-171 h -190 l 91,-640 h 99 z m -326,40 h 73 l 107,-736 h 202 v 736 h 71 v 89 h -10 v -80 h -433 v 80 h -10 z m 187,-725 -104,725 h 289 v -725 z"
   id="path48"
   inkscape:connector-curvature="0"
   style="fill:#ffffff;fill-rule:nonzero" />
  </g>
 </g>
</svg>