<?xml version="1.0" standalone="no"?>
<!DOCTYPE svg PUBLIC "-//W3C//DTD SVG 20010904//EN"
 "http://www.w3.org/TR/2001/REC-SVG-20010904/DTD/svg10.dtd">
<svg version="1.0" xmlns="http://www.w3.org/2000/svg"
 width="728.000000pt" height="728.000000pt" viewBox="0 0 728.000000 728.000000"
 preserveAspectRatio="xMidYMid meet">
<metadata>
Created by potrace 1.11, written by Peter Selinger 2001-2013
</metadata>
<g transform="translate(0.000000,728.000000) scale(0.100000,-0.100000)"
fill="#000000" stroke="none">
<path d="M5081 6502 l-92 -139 -87 3 c-81 3 -89 5 -112 31 -22 25 -50 58 -141
166 l-24 28 -70 -21 c-38 -11 -76 -24 -84 -28 -17 -10 -18 -15 -26 -151 -7
-96 -12 -164 -14 -183 -1 -5 -5 -8 -10 -8 -5 0 -37 -16 -71 -35 -34 -19 -68
-35 -75 -35 -8 0 -71 21 -140 47 l-127 47 -63 -65 -63 -64 74 -148 73 -148
-45 -74 c-46 -76 -52 -80 -118 -91 -21 -3 -48 -8 -60 -10 -11 -2 -37 -7 -56
-10 -59 -10 -103 -28 -106 -44 -1 -8 -9 -44 -19 -79 l-16 -64 32 -26 c18 -14
41 -30 51 -36 10 -5 57 -36 106 -69 l88 -58 -4 -87 c-4 -98 7 -83 -139 -205
-46 -38 -83 -70 -83 -70 0 -1 11 -39 24 -86 18 -67 27 -85 42 -87 10 -1 66 -4
124 -8 58 -4 119 -8 135 -10 17 -2 35 -4 42 -4 6 -1 31 -36 54 -78 l43 -77
-23 -60 c-12 -34 -24 -65 -25 -71 -2 -5 -6 -17 -9 -25 -12 -27 -37 -102 -37
-109 0 -7 82 -94 111 -118 12 -10 43 2 164 61 l149 74 55 -35 c31 -20 66 -42
77 -50 15 -9 23 -28 27 -61 4 -26 9 -58 12 -72 3 -14 10 -52 16 -85 13 -70 22
-85 56 -85 13 0 32 -4 41 -9 9 -4 33 -11 53 -15 l37 -7 68 103 c38 57 74 108
81 115 6 7 15 22 18 33 6 18 15 20 99 20 l93 0 93 -111 c63 -75 98 -109 109
-106 9 2 47 13 84 23 52 14 69 23 72 39 4 18 6 54 19 253 2 30 8 57 12 62 5 4
40 25 78 45 l68 37 62 -22 c33 -12 70 -25 81 -30 28 -12 114 -40 124 -40 5 0
36 27 70 61 l60 61 -45 92 c-25 50 -58 117 -73 148 l-29 57 46 74 45 75 61 12
c34 7 70 14 81 16 11 2 47 8 81 15 l61 12 22 85 c12 47 19 88 14 92 -4 4 -64
45 -133 90 -69 46 -127 87 -130 91 -3 5 -5 39 -3 76 1 37 2 74 3 81 0 14 13
27 100 102 35 30 77 66 92 80 l28 25 -21 75 c-12 41 -25 80 -30 86 -5 6 -26
11 -46 12 -91 3 -259 13 -270 17 -15 5 -86 133 -88 159 -1 11 9 47 22 78 13
32 33 87 44 123 l22 65 -44 49 c-76 84 -71 84 -217 11 -70 -35 -129 -64 -132
-64 -3 -1 -9 -4 -15 -7 -13 -8 -28 -2 -103 45 -36 23 -64 48 -67 60 -3 12 -12
62 -20 111 -20 118 -23 133 -29 144 -5 7 -62 25 -119 36 -10 3 -27 7 -36 10
-14 4 -37 -24 -110 -133z m82 -306 c15 -3 37 -8 50 -10 93 -18 212 -69 311
-133 71 -46 246 -209 246 -229 0 -6 8 -19 19 -28 16 -14 86 -146 112 -211 20
-49 47 -162 54 -230 6 -50 6 -188 0 -220 -7 -40 -18 -99 -20 -105 -1 -3 -5
-21 -9 -40 -13 -57 -105 -257 -131 -284 -6 -6 -26 -31 -45 -56 -19 -25 -59
-69 -90 -98 -55 -53 -179 -142 -198 -142 -5 0 -15 -7 -22 -15 -7 -8 -16 -13
-20 -10 -5 3 -11 1 -14 -4 -7 -11 -174 -67 -226 -75 -19 -3 -46 -8 -60 -11
-29 -6 -203 -6 -240 -1 -289 45 -535 200 -685 431 -54 83 -116 230 -129 307
-3 15 -7 31 -10 36 -4 7 -20 178 -19 207 4 90 39 259 67 320 8 17 21 47 29 67
27 65 109 181 181 256 143 148 355 256 545 279 25 3 48 7 50 9 6 6 221 -3 254
-10z"/>
<path d="M4847 6136 c-32 -7 -60 -13 -62 -14 -8 -3 -9 -3 -33 -8 -51 -9 -181
-70 -250 -117 -80 -53 -198 -165 -228 -215 -10 -18 -22 -32 -26 -32 -4 0 -8
-6 -8 -14 0 -8 -6 -21 -13 -28 -23 -24 -87 -179 -102 -247 -3 -11 -8 -31 -11
-43 -14 -52 -13 -255 2 -333 8 -44 18 -87 21 -95 3 -8 7 -17 7 -20 1 -3 10
-27 20 -55 74 -197 258 -391 459 -483 115 -54 192 -72 330 -79 267 -14 497 76
690 269 53 54 97 103 97 110 0 6 6 19 14 27 41 46 118 235 131 319 3 21 8 49
10 62 13 62 4 212 -19 325 -14 68 -84 222 -138 301 -28 42 -137 157 -181 191
-44 34 -158 102 -206 122 -49 21 -174 56 -211 60 -77 9 -246 7 -293 -3z m233
-753 c66 -38 94 -136 59 -205 -16 -32 -76 -86 -89 -81 -3 1 -16 -1 -28 -4 -35
-8 -95 13 -130 46 -31 30 -53 86 -47 118 2 10 4 26 4 35 1 28 67 94 103 105
40 12 94 6 128 -14z"/>
<path d="M4963 5335 c-65 -28 -76 -108 -22 -158 26 -24 36 -27 67 -22 80 12
116 100 64 154 -34 35 -68 43 -109 26z"/>
<path d="M1849 5203 c-6 -16 -42 -120 -81 -233 -39 -113 -74 -208 -77 -212 -7
-8 -112 -36 -210 -57 l-53 -11 -147 102 c-80 56 -152 108 -160 116 -37 36 -58
33 -147 -18 -48 -28 -91 -50 -95 -50 -5 0 -9 -4 -9 -9 0 -5 -9 -11 -21 -14
-16 -4 -19 -11 -15 -34 10 -58 26 -145 37 -200 6 -32 12 -67 14 -78 9 -54 16
-89 19 -94 2 -3 7 -29 10 -56 l7 -51 -82 -74 c-45 -41 -90 -83 -100 -94 -9
-10 -21 -16 -26 -13 -4 3 -49 8 -99 11 -50 4 -99 8 -110 10 -10 2 -64 7 -120
10 l-100 7 -65 -112 c-35 -62 -65 -115 -66 -118 -2 -3 9 -19 23 -36 23 -27 50
-58 124 -145 11 -14 31 -36 43 -50 12 -14 45 -52 72 -85 28 -33 54 -63 58 -66
5 -3 -2 -39 -14 -80 -13 -41 -24 -76 -24 -79 -1 -3 -5 -12 -8 -20 -3 -8 -10
-31 -15 -49 -8 -36 -36 -56 -122 -91 -19 -7 -82 -36 -140 -63 -58 -27 -115
-53 -127 -58 -22 -8 -23 -13 -23 -149 0 -77 2 -140 4 -140 4 0 316 -108 336
-117 8 -3 17 -7 20 -7 3 -1 31 -10 62 -20 l57 -20 26 -110 c14 -61 28 -121 31
-134 3 -17 -25 -64 -114 -190 -65 -92 -122 -173 -126 -180 -4 -7 6 -36 25 -70
18 -31 43 -77 57 -102 33 -59 48 -81 53 -76 2 2 22 7 44 10 22 3 63 11 90 16
28 5 61 12 75 14 14 2 59 11 100 20 41 8 91 18 110 21 19 3 43 8 53 11 12 4
30 -8 57 -38 21 -25 64 -70 94 -102 38 -41 53 -64 51 -79 -2 -12 -6 -56 -10
-97 -3 -41 -9 -102 -12 -135 -3 -33 -6 -89 -7 -124 l-1 -65 116 -66 116 -67
40 36 c22 20 62 55 89 77 27 23 59 50 70 60 12 11 46 40 75 66 30 25 65 56 78
67 25 22 45 23 106 3 17 -6 65 -21 107 -33 l77 -24 24 -55 c30 -67 89 -192
131 -280 l31 -65 132 1 c73 0 135 3 138 6 5 5 112 298 119 328 8 28 48 135 55
142 4 4 27 12 51 17 25 5 56 12 70 15 14 4 36 8 50 11 14 3 39 9 56 14 32 9
54 -5 336 -208 l56 -41 104 60 c56 33 110 64 118 69 17 10 18 2 -9 146 -25
132 -27 143 -50 268 l-17 97 89 83 c49 45 96 86 104 91 8 4 43 5 76 2 34 -4
85 -8 112 -11 28 -3 79 -8 115 -11 36 -3 82 -7 103 -8 l39 -1 68 117 68 116
-110 129 c-60 70 -133 155 -161 187 -29 32 -53 63 -55 67 -2 5 6 41 18 81 12
40 22 78 24 83 27 99 24 95 94 127 37 17 108 50 157 73 50 23 109 50 133 60
23 11 43 21 43 24 5 22 5 262 0 269 -3 5 -46 23 -96 40 -49 17 -155 53 -234
81 -79 28 -145 51 -146 51 -3 0 -17 75 -16 85 0 2 -6 23 -14 45 -8 22 -14 41
-14 43 1 1 -2 23 -6 49 -6 38 -4 52 11 71 11 14 25 33 32 43 7 11 55 79 107
153 l95 134 -19 31 c-10 17 -30 51 -43 76 -20 35 -64 112 -73 128 -1 1 -62 -9
-136 -23 -74 -13 -147 -26 -163 -29 -16 -3 -52 -10 -80 -15 -28 -6 -68 -13
-89 -16 -41 -5 -34 -11 -181 150 l-37 40 6 72 c3 39 7 84 9 101 3 16 7 69 11
118 4 49 9 101 11 116 5 31 -3 38 -145 118 -79 45 -96 51 -105 39 -6 -8 -21
-22 -34 -31 -12 -8 -39 -30 -60 -49 -20 -19 -66 -59 -102 -89 -36 -30 -71 -60
-78 -67 -7 -7 -33 -29 -57 -49 -45 -36 -45 -36 -82 -21 -21 8 -41 15 -46 16
-4 0 -44 12 -90 26 -73 22 -84 28 -96 57 -33 76 -76 169 -122 266 l-48 102
-136 0 -135 0 -11 -27z m431 -657 c106 -11 287 -50 304 -67 6 -5 18 -9 28 -9
10 0 47 -13 83 -30 36 -16 67 -30 69 -30 9 0 151 -85 154 -92 2 -4 9 -8 16 -8
15 0 158 -114 221 -177 80 -80 118 -124 165 -193 25 -36 50 -68 55 -72 7 -5 7
-8 0 -8 -6 0 -5 -4 1 -8 30 -19 162 -332 167 -393 1 -11 4 -19 7 -19 3 0 6 -8
7 -17 0 -10 3 -31 6 -48 3 -16 8 -52 13 -80 10 -63 11 -311 1 -390 -13 -111
-89 -374 -109 -383 -5 -2 -8 -10 -8 -17 0 -14 -77 -165 -89 -175 -3 -3 -28
-39 -56 -80 -46 -69 -212 -244 -281 -298 -94 -73 -339 -212 -373 -212 -5 0
-26 -8 -47 -17 -22 -9 -41 -17 -44 -18 -3 -1 -47 -11 -98 -23 -127 -31 -175
-36 -332 -37 -271 0 -449 43 -687 166 -94 48 -273 173 -273 190 0 5 -4 9 -9 9
-10 0 -87 75 -150 147 -99 114 -212 311 -264 463 -21 63 -29 88 -42 140 -22
90 -38 228 -38 335 0 79 10 216 18 245 2 8 6 26 9 40 30 173 130 405 244 564
75 105 283 316 311 316 5 0 11 4 13 9 8 21 288 181 288 164 0 -3 6 0 13 6 22
18 185 69 275 87 12 2 34 6 50 9 15 3 58 8 97 11 38 3 71 6 72 8 4 3 153 -2
213 -8z"/>
<path d="M2067 4494 c-1 -2 -34 -5 -72 -8 -305 -23 -623 -173 -847 -399 -39
-38 -102 -112 -156 -182 -59 -76 -180 -324 -197 -405 -2 -8 -8 -27 -13 -41 -6
-15 -8 -29 -6 -32 3 -3 1 -14 -4 -24 -5 -10 -13 -40 -16 -68 -4 -27 -10 -66
-13 -85 -12 -76 -2 -367 13 -392 3 -4 7 -20 9 -35 6 -50 46 -182 76 -254 85
-206 228 -400 408 -553 144 -122 408 -251 576 -281 47 -9 67 -13 98 -21 12 -3
87 -7 167 -9 139 -4 256 7 371 34 115 26 336 119 382 159 9 8 17 11 17 6 0 -5
4 -4 8 1 4 6 31 26 60 44 28 18 52 36 52 40 0 4 12 14 28 24 46 28 172 154
232 233 142 185 239 416 277 655 9 59 9 333 -1 389 -4 25 -9 59 -12 75 -6 38
-33 143 -44 170 -83 212 -123 286 -223 415 -67 87 -108 129 -197 206 -92 79
-80 70 -170 126 -172 108 -388 183 -580 204 -58 6 -219 12 -223 8z m150 -1189
c84 -35 137 -117 137 -210 0 -67 -16 -106 -65 -154 -41 -42 -75 -58 -132 -65
-168 -20 -297 158 -227 311 24 54 44 75 100 107 36 21 57 26 102 25 31 -1 69
-8 85 -14z"/>
<path d="M2068 3247 c-88 -40 -125 -147 -77 -227 29 -48 49 -65 92 -79 84 -28
178 22 206 109 11 36 6 110 -8 120 -4 3 -13 15 -20 27 -26 51 -130 77 -193 50z"/>
<path d="M5873 3997 c-11 -12 -52 -67 -93 -122 -40 -55 -87 -119 -104 -142
l-31 -42 -55 5 c-30 3 -79 7 -108 8 -29 2 -54 5 -56 7 -8 11 -162 215 -169
224 -4 6 -16 20 -26 32 l-18 22 -84 -20 c-46 -11 -92 -22 -103 -24 -25 -6 -24
-3 -31 -65 -3 -30 -8 -73 -11 -95 -11 -92 -14 -113 -20 -170 -4 -33 -7 -66 -7
-72 0 -7 -5 -13 -10 -13 -5 0 -45 -18 -89 -40 -44 -22 -87 -40 -95 -40 -11 0
-188 70 -318 126 -10 4 -165 -136 -165 -150 0 -9 103 -251 136 -320 8 -16 14
-35 14 -43 0 -8 -27 -53 -60 -100 -55 -79 -62 -86 -97 -88 -21 -2 -51 -6 -68
-9 -16 -2 -55 -8 -85 -12 -30 -3 -68 -8 -85 -11 -16 -2 -40 -5 -52 -5 -13 -1
-23 -9 -23 -17 0 -9 -10 -43 -21 -76 -11 -33 -22 -67 -24 -75 -2 -8 -6 -23
-10 -32 -4 -10 -3 -18 1 -18 5 0 21 -10 36 -23 14 -12 37 -30 50 -39 201 -146
233 -174 231 -198 -8 -138 -15 -196 -26 -202 -7 -3 -68 -50 -137 -104 -76 -59
-124 -103 -123 -113 0 -9 6 -41 13 -71 6 -30 14 -70 17 -88 6 -39 7 -40 69
-47 27 -3 63 -7 79 -9 17 -2 54 -7 83 -10 28 -3 76 -9 105 -12 28 -4 58 -7 65
-7 14 0 102 -176 102 -204 0 -10 -4 -23 -8 -29 -5 -5 -15 -25 -22 -44 -7 -19
-19 -48 -26 -65 -40 -95 -73 -179 -71 -181 1 -1 33 -36 71 -78 69 -76 82 -84
114 -67 51 27 319 141 332 141 11 0 68 -36 80 -50 3 -3 26 -19 52 -35 30 -19
48 -37 49 -50 0 -11 2 -29 4 -40 7 -38 15 -100 21 -150 2 -27 7 -61 10 -75 3
-14 6 -34 5 -45 0 -17 13 -24 77 -43 153 -46 125 -57 233 90 129 177 147 197
173 193 11 -2 57 -7 101 -10 62 -5 85 -11 103 -27 12 -12 22 -27 22 -34 0 -7
4 -14 8 -16 4 -1 23 -23 42 -48 19 -25 46 -59 60 -76 14 -17 32 -40 39 -52 20
-29 34 -33 73 -21 18 5 49 12 68 15 70 10 100 24 101 47 0 12 2 29 3 37 2 8 9
65 16 125 6 61 13 121 15 135 2 14 4 37 4 53 1 25 10 32 97 72 53 25 99 45
104 45 4 0 79 -29 166 -65 l158 -65 24 22 c14 13 50 46 81 74 l55 51 -23 54
c-13 30 -31 72 -41 94 -68 153 -90 208 -90 220 0 14 53 98 77 123 7 7 13 18
13 23 0 22 29 38 81 44 30 3 68 9 84 11 17 3 44 7 60 9 134 13 146 17 157 44
5 14 11 31 12 36 2 6 5 17 9 25 3 8 12 38 21 65 18 61 31 46 -162 190 -123 93
-147 114 -146 135 6 120 17 186 32 200 29 27 223 174 243 185 12 6 17 17 15
30 -37 204 -37 203 -124 211 -26 2 -60 6 -77 8 -16 3 -57 8 -90 11 -82 8 -127
15 -146 20 -22 7 -102 182 -95 209 3 12 15 44 28 72 12 27 23 51 23 54 1 3 6
16 12 30 6 14 23 54 37 89 l26 65 -24 25 c-13 14 -46 50 -74 80 l-50 54 -88
-38 c-142 -60 -176 -75 -230 -100 l-52 -24 -88 60 c-48 33 -89 61 -91 62 -1 2
-5 27 -8 57 -3 30 -8 69 -12 85 -3 17 -7 46 -8 65 -3 45 -16 133 -21 141 -2 3
-32 14 -66 24 -35 11 -65 19 -68 20 -3 1 -13 5 -22 8 -40 15 -47 15 -65 -6z
m-123 -512 c107 -14 249 -56 329 -97 19 -10 41 -18 48 -18 7 0 13 -4 13 -10 0
-5 4 -10 10 -10 26 0 204 -131 260 -191 114 -122 162 -187 218 -296 57 -110
101 -244 118 -358 12 -82 11 -282 -3 -360 -34 -200 -127 -408 -247 -554 -73
-88 -217 -213 -308 -265 -42 -25 -197 -97 -218 -101 -8 -2 -34 -10 -58 -19
-23 -8 -45 -15 -47 -15 -6 1 -61 -9 -95 -17 -52 -13 -310 -11 -373 3 -34 8
-71 16 -82 18 -78 15 -296 102 -315 126 -3 3 -16 12 -30 19 -78 40 -225 173
-306 276 -67 85 -148 236 -179 334 -51 161 -64 250 -59 405 3 116 6 147 26
235 6 30 12 57 13 60 0 3 3 10 6 15 4 6 9 23 13 39 22 90 136 289 221 385 162
184 381 321 590 370 83 19 98 22 155 28 30 3 56 6 57 7 6 5 193 -2 243 -9z"/>
<path d="M5498 3435 c-2 -2 -25 -5 -53 -8 -232 -28 -464 -143 -635 -316 -135
-136 -216 -267 -273 -441 -41 -125 -51 -194 -51 -340 1 -115 4 -155 23 -240
15 -74 18 -82 44 -150 90 -237 250 -430 466 -560 95 -57 263 -124 338 -135 15
-2 46 -7 68 -11 112 -20 382 -5 460 25 11 5 38 14 60 21 58 17 205 88 242 116
17 13 36 24 41 24 6 0 12 3 14 8 2 4 24 24 50 45 64 51 138 129 193 202 93
123 184 345 203 495 9 73 9 252 -1 315 -5 28 -9 57 -11 65 -15 94 -111 337
-138 348 -4 2 -8 8 -8 13 0 6 -24 42 -53 82 -99 132 -262 268 -402 332 -64 29
-94 41 -110 45 -5 1 -17 6 -26 11 -9 4 -27 10 -40 13 -13 3 -42 10 -64 15 -77
19 -111 23 -222 25 -62 2 -114 2 -115 1z m180 -944 c84 -45 120 -157 77 -241
-44 -88 -139 -126 -230 -91 -72 27 -119 91 -117 160 1 58 4 69 26 106 47 81
160 111 244 66z"/>
<path d="M5560 2449 c-105 -22 -126 -165 -34 -226 34 -22 94 -22 128 1 65 42
79 119 32 181 -15 19 -28 35 -29 35 -1 0 -16 4 -32 8 -17 5 -46 5 -65 1z"/>
</g>
</svg>
