<svg width="15" height="16" viewBox="0 0 15 16" fill="none" xmlns="http://www.w3.org/2000/svg"><path d="M2.353 1.137c-1.35.544-2.182 2.08-1.9 3.56.2.98.644 1.85 1.167 2.703.337.528.715 1.039 1.113 1.53.491.654 1.079 1.39 1.784 2.151a18.11 18.11 0 0 0 1.802 1.695c1.037.913 2.12 1.668 3.473 2.076 1.414.41 2.945-.206 3.668-1.469.36-.62.299-1.1-.34-1.5a38.05 38.05 0 0 1-2.403-1.54c-.542-.378-.998-.375-1.528-.018-.692.47-1.421.859-2.127.098-.02.02-1.68-1.77-1.68-1.77-1.275-1.417-1.274-1.457-.277-3.146.212-.369.304-.703.081-1.108-.52-.952-1.018-1.924-1.538-2.876-.338-.509-.751-.604-1.295-.386z" fill="#003073"/></svg>